<?xml version="1.0" encoding="UTF-8" standalone="no"?>
<!-- Created with Inkscape (http://www.inkscape.org/) -->

<svg
   xmlns:dc="http://purl.org/dc/elements/1.1/"
   xmlns:cc="http://creativecommons.org/ns#"
   xmlns:rdf="http://www.w3.org/1999/02/22-rdf-syntax-ns#"
   xmlns:svg="http://www.w3.org/2000/svg"
   xmlns="http://www.w3.org/2000/svg"
   xmlns:sodipodi="http://sodipodi.sourceforge.net/DTD/sodipodi-0.dtd"
   xmlns:inkscape="http://www.inkscape.org/namespaces/inkscape"
   width="1164.7117mm"
   height="186.76146mm"
   viewBox="0 0 1164.7116 186.76145"
   version="1.1"
   id="svg6430"
   sodipodi:docname="logo_left.svg"
   inkscape:version="0.92.5 (2060ec1f9f, 2020-04-08)">
  <defs
     id="defs6424" />
  <sodipodi:namedview
     id="base"
     pagecolor="#ffffff"
     bordercolor="#666666"
     borderopacity="1.0"
     inkscape:pageopacity="0.0"
     inkscape:pageshadow="2"
     inkscape:zoom="0.11913757"
     inkscape:cx="2560.6681"
     inkscape:cy="1362.2274"
     inkscape:document-units="mm"
     inkscape:current-layer="layer1"
     showgrid="false"
     inkscape:window-width="1848"
     inkscape:window-height="1016"
     inkscape:window-x="1992"
     inkscape:window-y="27"
     inkscape:window-maximized="1"
     fit-margin-top="0"
     fit-margin-left="0"
     fit-margin-right="0"
     fit-margin-bottom="0"
     inkscape:snap-bbox="true"
     inkscape:bbox-nodes="true"
     inkscape:bbox-paths="true"
     inkscape:snap-bbox-edge-midpoints="true"
     inkscape:snap-bbox-midpoints="true"
     inkscape:object-paths="true"
     inkscape:snap-intersection-paths="true"
     inkscape:snap-midpoints="true"
     inkscape:snap-smooth-nodes="true"
     inkscape:snap-object-midpoints="true"
     inkscape:snap-center="true"
     inkscape:snap-text-baseline="true"
     inkscape:snap-page="true"
     scale-x="1" />
  <metadata
     id="metadata6427">
    <rdf:RDF>
      <cc:Work
         rdf:about="">
        <dc:format>image/svg+xml</dc:format>
        <dc:type
           rdf:resource="http://purl.org/dc/dcmitype/StillImage" />
        <dc:title></dc:title>
      </cc:Work>
    </rdf:RDF>
  </metadata>
  <g
     inkscape:label="Calque 1"
     inkscape:groupmode="layer"
     id="layer1"
     transform="translate(29.56134,-88.148863)">
    <g
       id="g893">
      <g
         id="g6506"
         transform="translate(-925.3833,-251.27053)">
        <path
           style="color:#000000;font-style:normal;font-variant:normal;font-weight:normal;font-stretch:normal;font-size:medium;line-height:normal;font-family:sans-serif;font-variant-ligatures:normal;font-variant-position:normal;font-variant-caps:normal;font-variant-numeric:normal;font-variant-alternates:normal;font-feature-settings:normal;text-indent:0;text-align:start;text-decoration:none;text-decoration-line:none;text-decoration-style:solid;text-decoration-color:#000000;letter-spacing:normal;word-spacing:normal;text-transform:none;writing-mode:lr-tb;direction:ltr;text-orientation:mixed;dominant-baseline:auto;baseline-shift:baseline;text-anchor:start;white-space:normal;shape-padding:0;clip-rule:nonzero;display:inline;overflow:visible;visibility:visible;opacity:1;isolation:auto;mix-blend-mode:normal;color-interpolation:sRGB;color-interpolation-filters:linearRGB;solid-color:#000000;solid-opacity:1;vector-effect:none;fill:#fdcf00;fill-opacity:1;fill-rule:nonzero;stroke:none;stroke-width:5.63562489;stroke-linecap:butt;stroke-linejoin:round;stroke-miterlimit:4;stroke-dasharray:none;stroke-dashoffset:0;stroke-opacity:1;paint-order:normal;color-rendering:auto;image-rendering:auto;shape-rendering:auto;text-rendering:auto;enable-background:accumulate"
           d="m 1082.8191,384.52278 c -2.3585,10e-6 -4.7111,0.0589 -7.0554,0.1757 -0.4415,0.34505 -0.8862,0.67953 -1.3333,0.99219 -3.2893,2.30084 -6.6178,3.75159 -8.0594,4.32738 0.1388,0.36145 0.2837,0.72443 0.431,1.08779 5.2897,-0.62712 10.6368,-0.94824 16.0176,-0.94826 5.3923,0 10.751,0.32262 16.0517,0.9524 0.047,-0.4723 0.099,-0.9405 0.1628,-1.39733 -0.028,-0.0156 -0.053,-0.0262 -0.083,-0.0419 -0.5624,-0.29514 -1.2552,-0.70068 -2.034,-1.21336 -1.3543,-0.89076 -2.9643,-2.10351 -4.563,-3.61115 -3.1639,-0.21334 -6.3434,-0.32349 -9.5343,-0.3235 z m -27.8722,2.76934 c -5.4676,1.09734 -10.8546,2.51617 -16.135,4.24212 -0.2717,0.4013 -0.5473,0.79508 -0.8293,1.17202 -1.5522,2.07481 -3.2257,3.77599 -4.6241,5.00951 -0.6989,0.61709 -1.328,1.1165 -1.8433,1.48777 -0.027,0.0196 -0.05,0.0338 -0.075,0.0532 0.083,0.29015 0.1637,0.58452 0.2408,0.88264 10.4853,-4.25442 21.5026,-7.20333 32.8052,-8.74055 -0.095,-0.38728 -0.1844,-0.77284 -0.264,-1.15342 -0.032,-0.005 -0.06,-0.007 -0.091,-0.0114 -0.6291,-0.0879 -1.4182,-0.23565 -2.3244,-0.45527 -1.8124,-0.43846 -4.0866,-1.16294 -6.4275,-2.27376 -0.1432,-0.068 -0.2874,-0.14201 -0.431,-0.21291 z m 58.3473,0.54932 c -1.0339,0.4103 -2.0833,0.75045 -3.113,1.03095 -3.873,1.05505 -7.4956,1.29666 -9.047,1.35185 0.01,0.38962 0.022,0.78285 0.038,1.17719 11.4804,1.563 22.6664,4.58205 33.2992,8.94674 0.1444,-0.45715 0.2936,-0.90886 0.4512,-1.3472 -0.024,-0.0211 -0.047,-0.0371 -0.072,-0.0584 -0.4897,-0.40452 -1.0843,-0.94365 -1.7409,-1.60558 -1.2684,-1.27759 -2.7626,-3.01099 -4.1347,-5.08445 -5.1293,-1.76776 -10.3652,-3.24004 -15.6807,-4.4111 z m -94.4211,11.93726 c -4.7157,2.38545 -9.3022,5.03756 -13.7371,7.94577 -0.2212,0.61234 -0.4589,1.20823 -0.709,1.78335 -1.0338,2.37597 -2.2717,4.41679 -3.3492,5.93866 -0.5384,0.76118 -1.0359,1.39144 -1.45207,1.8712 -0.022,0.0252 -0.041,0.0444 -0.062,0.0692 0.15888,0.28342 0.31501,0.57371 0.46917,0.86765 9.1101,-6.98856 19.0295,-12.76646 29.5068,-17.22685 -0.034,-0.32502 -0.07,-0.64854 -0.1081,-0.96945 -1.5437,0.16346 -5.1643,0.43391 -9.1472,-0.0661 -0.4655,-0.0585 -0.9372,-0.13209 -1.4108,-0.21342 z m 117.9995,0.15451 c -0.082,0.43764 -0.1585,0.8812 -0.232,1.32654 10.5028,4.5251 20.4398,10.37608 29.5537,17.44699 0.2131,-0.358 0.4282,-0.71163 0.6476,-1.05317 -0.019,-0.026 -0.037,-0.0464 -0.057,-0.0729 -0.3866,-0.50394 -0.8453,-1.16271 -1.3369,-1.95492 -0.984,-1.58394 -2.0964,-3.69547 -2.9853,-6.12934 -0.073,-0.19913 -0.1413,-0.40379 -0.2109,-0.6072 -4.6507,-3.1494 -9.4749,-6.01374 -14.4456,-8.57984 -0.6063,0.0711 -1.2092,0.12742 -1.8014,0.16227 -4.0072,0.23576 -7.6023,-0.27334 -9.1318,-0.53847 z m -54.0556,0.0171 c -3.6058,10e-5 -7.1958,0.15539 -10.7611,0.46044 0.081,0.0813 0.1615,0.1573 0.2403,0.22738 0.2381,0.21135 0.1666,0.6 -0.1312,0.71262 l -3.0417,1.15496 c -0.1981,0.0752 -0.4214,-0.008 -0.5225,-0.19378 -0.2337,-0.43019 -0.4837,-0.93001 -0.74,-1.4702 -12.0052,1.43276 -23.6875,4.57539 -34.7028,9.28936 0.032,0.67572 0.045,1.29686 0.039,1.84123 0,0.21196 -0.1612,0.38952 -0.3716,0.41548 l -3.2292,0.39739 c -0.3161,0.0397 -0.5611,-0.27074 -0.4491,-0.56896 0.04,-0.1057 0.077,-0.21864 0.1132,-0.33693 -9.0499,4.24057 -17.6075,9.56059 -25.4744,15.8781 0.1628,0.57802 0.3037,1.12133 0.4108,1.60094 0.046,0.20672 -0.067,0.41579 -0.2661,0.48937 l -3.0515,1.12913 c -0.2498,0.0925 -0.5219,-0.0658 -0.5649,-0.32866 -2.31827,2.00236 -4.5713,4.09441 -6.75199,6.27507 -5.0428,5.04285 -9.6134,10.46957 -13.6865,16.20986 0.25429,0.46954 0.48752,0.9178 0.67902,1.31827 0.0916,0.19111 0.0278,0.42055 -0.14935,0.53692 l -2.72024,1.7849 c -0.0988,0.0648 -0.22021,0.0855 -0.33488,0.0568 -5.61806,8.54466 -10.16569,17.72442 -13.55677,27.3296 0.50294,0.56883 0.95136,1.1043 1.31929,1.57923 0.12978,0.16738 0.11583,0.40491 -0.0326,0.55604 l -2.281,2.31976 c -0.13378,0.13636 -0.34232,0.16619 -0.50901,0.0729 -2.88427,9.27144 -4.70569,18.89824 -5.38985,28.69902 0.13906,0.13505 0.16867,0.34729 0.0718,0.51522 l -0.12144,0.20981 c -0.17145,2.67848 -0.2594,5.36927 -0.2594,8.06927 h 5.63478 c 8e-5,-31.98452 12.70373,-62.65686 35.32034,-85.27335 22.6165,-22.61644 53.2888,-35.32022 85.2733,-35.32032 31.9846,-3e-5 62.6573,12.70387 85.2739,35.32032 22.6165,22.61649 35.3202,53.28876 35.3203,85.27335 h 5.6363 c -10e-5,-3.48418 -0.1462,-6.95331 -0.431,-10.39988 -0.3331,0.28271 -0.6175,0.55593 -0.8402,0.81493 -0.2075,0.24152 -0.5974,0.17612 -0.7147,-0.11988 l -1.2056,-3.02204 c -0.078,-0.1968 5e-4,-0.42134 0.185,-0.52555 0.6115,-0.34551 1.3589,-0.72483 2.1849,-1.11414 -1.077,-9.40222 -3.2039,-18.60957 -6.3118,-27.45828 -0.2813,0.40832 -0.5103,0.79082 -0.6697,1.13482 -0.1335,0.28922 -0.5266,0.33292 -0.7204,0.0801 l -1.9843,-2.57866 c -0.1291,-0.16799 -0.1141,-0.40556 0.035,-0.55604 0.5339,-0.53958 1.2058,-1.15896 1.9642,-1.81332 -3.456,-8.92971 -7.9269,-17.45978 -13.3372,-25.41706 l -2.4856,-1.96628 c -0.166,-0.13154 -0.2093,-0.36555 -0.1013,-0.54777 0.1164,-0.19669 0.2487,-0.40856 0.384,-0.62322 -3.8785,-5.34747 -8.1932,-10.41521 -12.9233,-15.14533 -2.1882,-2.18814 -4.4491,-4.28714 -6.7758,-6.29574 v 0.0971 c 0.021,0.31774 -0.3025,0.54439 -0.5937,0.41548 l -2.9782,-1.31052 c -0.194,-0.0854 -0.2949,-0.30118 -0.2361,-0.50487 0.1277,-0.44392 0.2906,-0.9448 0.4728,-1.4733 -7.9254,-6.37984 -16.5538,-11.74607 -25.6821,-16.01452 0.021,0.0843 0.042,0.16863 0.066,0.24649 0.092,0.30493 -0.1725,0.59841 -0.4852,0.53795 l -3.1957,-0.60978 c -0.2082,-0.0399 -0.3548,-0.22759 -0.3432,-0.43925 0.024,-0.43669 0.067,-0.93208 0.1215,-1.45417 -9.4612,-4.04597 -19.4144,-6.93372 -29.6411,-8.57416 0.1016,0.25056 0.2074,0.47796 0.3163,0.67748 0.1527,0.27953 -0.046,0.62125 -0.3649,0.62632 l -3.253,0.06 c -0.2118,0.004 -0.3934,-0.14927 -0.4258,-0.35864 -0.072,-0.46609 -0.1365,-1.0002 -0.1938,-1.56993 -5.3002,-0.68027 -10.6651,-1.02876 -16.0662,-1.02888 z m 0,15.42593 c -29.3857,1.2e-4 -57.5703,11.6761 -78.3492,32.45487 -20.77881,20.7788 -32.45373,48.96409 -32.45386,78.34974 h 5.6348 c 1.1e-4,-27.89317 11.0799,-54.64151 30.80326,-74.36497 19.7234,-19.72342 46.4718,-30.80266 74.365,-30.80277 27.8932,-5e-5 54.6419,11.07932 74.3655,30.80277 19.7235,19.72349 30.8027,46.47172 30.8028,74.36497 h 5.6347 c 0,-29.38575 -11.6744,-57.57091 -32.4533,-78.34974 -20.7789,-20.7788 -48.964,-32.45493 -78.3497,-32.45487 z m -85.02479,3.252 c -1.46489,0.51384 -4.92662,1.60902 -8.91778,2.0376 -0.2096,0.0225 -0.42376,0.0387 -0.63614,0.0574 -1.90521,1.70864 -3.77044,3.47077 -5.58932,5.28959 -2.05431,2.05435 -4.0385,4.16593 -5.95209,6.32985 -0.085,0.93014 -0.21207,1.83933 -0.37468,2.71301 -0.47419,2.54734 -1.22306,4.81378 -1.93164,6.53862 -0.35391,0.86259 -0.69731,1.5883 -0.99531,2.14922 -0.015,0.0294 -0.0299,0.0523 -0.0439,0.0811 0.2186,0.24072 0.43577,0.48845 0.65218,0.74052 3.83939,-5.11875 8.05479,-9.99007 12.63229,-14.56759 3.6657,-3.66555 7.5197,-7.09888 11.53779,-10.29342 -0.12488,-0.36151 -0.25157,-0.72115 -0.38137,-1.07591 z m 170.73839,0.37156 c -0.1672,0.38384 -0.3307,0.77414 -0.4925,1.16633 3.8103,3.06313 7.471,6.34183 10.9606,9.83144 4.4478,4.4478 8.5547,9.17251 12.3062,14.13247 0.4699,-0.48205 0.945,-0.94734 1.4217,-1.38699 -0.012,-0.0299 -0.025,-0.0541 -0.037,-0.0847 -0.2471,-0.58509 -0.5247,-1.33829 -0.801,-2.22881 -0.5159,-1.66082 -1.0218,-3.79688 -1.2883,-6.16913 -2.4205,-2.83805 -4.9585,-5.59096 -7.6151,-8.24756 -1.4569,-1.45697 -2.9438,-2.87689 -4.4565,-4.2633 -0.4111,-0.0531 -0.8189,-0.11179 -1.2191,-0.17932 -3.9582,-0.66794 -7.3475,-1.96932 -8.7788,-2.57038 z m -85.7131,11.80393 c -52.6415,1.5e-4 -95.37695,42.73561 -95.37711,95.37712 h 5.6348 c 1.6e-4,-49.59581 40.14651,-89.74011 89.74231,-89.74026 49.5961,-10e-5 89.7402,40.14425 89.7403,89.74026 h 5.6363 c -10e-5,-52.64173 -42.7348,-95.37723 -95.3766,-95.37712 z m 111.2067,13.66841 c -0.4203,0.53552 -0.8376,1.0862 -1.2465,1.64435 6.4909,8.91428 11.8511,18.55462 15.9877,28.69644 0.032,-0.0176 0.064,-0.0368 0.096,-0.0543 0,-0.0319 -0.011,-0.0586 -0.015,-0.0915 -0.098,-0.62761 -0.1842,-1.42602 -0.2356,-2.35696 -0.1037,-1.8618 -0.067,-4.24794 0.3203,-6.80992 0.1358,-0.89823 0.3183,-1.81946 0.5499,-2.74661 -2.3513,-4.69603 -4.9647,-9.26604 -7.8331,-13.6865 -3.557,-1.6278 -6.415,-3.67218 -7.6233,-4.59507 z m -222.11877,0.95963 c -1.299,0.82106 -4.3774,2.63522 -8.11787,3.9455 -2.74597,4.256 -5.25854,8.64841 -7.52665,13.15889 0.38134,1.74541 0.56541,3.48837 0.61338,5.14025 0.0752,2.59001 -0.17714,4.96289 -0.50488,6.79855 -0.16348,0.91793 -0.3457,1.70025 -0.51831,2.31149 -0.009,0.0321 -0.0181,0.0572 -0.0264,0.0884 0.0575,0.0411 0.11504,0.0855 0.17262,0.12712 4.18822,-10.80049 9.75241,-21.05851 16.58297,-30.5077 -0.22302,-0.35799 -0.44786,-0.71357 -0.6749,-1.06247 z m 110.91207,0.79944 c -44.1217,1.4e-4 -79.951,35.8279 -79.9512,79.94964 h 5.6364 c 10e-5,-41.07604 33.2388,-74.31472 74.3148,-74.31484 41.0763,-1.3e-4 74.3141,33.2386 74.3143,74.31484 h 5.6348 c -10e-5,-44.12196 -35.8271,-79.94977 -79.9491,-79.94964 z m 0,15.42386 c -35.6025,3e-5 -64.5257,28.92322 -64.5258,64.52578 h 5.6369 c 1e-4,-32.55684 26.3321,-58.88888 58.8889,-58.88891 32.5572,-2.3e-4 58.8883,26.33185 58.8884,58.88891 h 5.6369 c -10e-5,-35.60278 -28.9224,-64.52603 -64.5253,-64.52578 z m 126.8827,15.09572 c -0.041,0.0318 -0.082,0.0651 -0.123,0.0972 3.9404,10.12403 6.6697,20.7261 8.0988,31.58618 0.1187,-0.0283 0.2385,-0.059 0.3565,-0.0858 0,-0.0319 0.01,-0.059 0.01,-0.092 0.077,-0.6304 0.212,-1.42197 0.4166,-2.33164 0.4082,-1.81947 1.094,-4.10507 2.1657,-6.4642 0.2824,-0.6217 0.5939,-1.24865 0.9322,-1.87379 -0.8948,-4.34099 -1.99,-8.63083 -3.283,-12.85555 -0.7334,-0.48208 -1.439,-0.99034 -2.1037,-1.51412 -3.1527,-2.48459 -5.5022,-5.25235 -6.4699,-6.46627 z m -126.8832,0.33228 c -27.0825,1.7e-4 -49.0971,22.01534 -49.0973,49.09778 h 5.6348 c 2e-4,-24.03675 19.4257,-43.46283 43.4625,-43.46298 24.0369,-1e-4 43.4628,19.42606 43.463,43.46298 h 5.6348 c -2e-4,-27.08264 -22.0152,-49.09788 -49.0978,-49.09778 z m -128.06504,1.66812 c -1.10712,1.08819 -3.77449,3.55221 -7.20423,5.6379 -0.0328,0.0199 -0.0673,0.039 -0.10025,0.0589 -1.54657,5.01618 -2.81636,10.12435 -3.79976,15.30191 0.27334,0.72986 0.51647,1.4581 0.72398,2.17506 0.7203,2.48897 1.06968,4.84985 1.21131,6.70915 0.071,0.92965 0.0901,1.73232 0.076,2.36729 0,0.0332 -0.003,0.0603 -0.003,0.0925 0.62564,0.24105 1.25979,0.50914 1.895,0.79478 1.18637,-11.23224 3.76071,-22.21576 7.62537,-32.71066 -0.14139,-0.14276 -0.28265,-0.28649 -0.42426,-0.42685 z M 1082.817,492.509 c -18.5624,6e-5 -33.6698,15.10944 -33.6698,33.67185 h 5.6348 c 0,-15.51671 12.5183,-28.03493 28.035,-28.03498 15.5169,-2.2e-4 28.0354,12.51808 28.0355,28.03498 h 5.6363 c 0,-18.56264 -15.1092,-33.67211 -33.6718,-33.67185 z m 0,15.428 c -10.0426,1.9e-4 -18.2436,8.20129 -18.2439,18.24385 h 5.6349 c 10e-5,-6.99692 5.6121,-12.60892 12.609,-12.60905 6.997,-1e-4 12.6095,5.61198 12.6096,12.60905 h 5.6348 c -10e-5,-10.04279 -8.2016,-18.24401 -18.2444,-18.24385 z m 135.4791,2.55695 c -0.1156,0.0466 -0.2319,0.0961 -0.3478,0.14366 0.5905,5.13488 0.8924,10.32336 0.8924,15.54324 h 5.6348 c 0,-1.89746 -0.04,-3.79064 -0.1157,-5.67924 -0.5711,-0.66107 -1.1086,-1.33943 -1.603,-2.02158 -2.3553,-3.25043 -3.8609,-6.55424 -4.4607,-7.98608 z m -273.21021,2.68511 c -0.60891,1.01271 -1.89587,3.02327 -3.70935,5.19451 -0.14306,2.59337 -0.21755,5.19642 -0.21755,7.80728 h 5.63685 c 0,-3.90337 0.16769,-7.78928 0.49921,-11.64839 -0.73033,-0.46869 -1.47166,-0.92311 -2.20916,-1.3534 z"
           id="circle966-2-7"
           inkscape:connector-curvature="0" />
        <path
           inkscape:connector-curvature="0"
           style="fill:#dd061a;fill-opacity:1;stroke:none;stroke-width:0.84666669;stroke-linecap:round;stroke-linejoin:round;stroke-miterlimit:4;stroke-dasharray:none;stroke-opacity:1"
           d="m 927.89857,488.11584 c -2.98496,0.0161 -6.38493,0.64866 -9.83713,1.63453 l 4.72167,14.95516 c 2.57519,0.49185 5.10252,1.05741 7.74682,1.78955 a 0.42337569,0.42337569 0 0 1 0.17208,0.0481 c 1.75252,0.48914 3.56219,1.05432 5.47357,1.72134 l -5.83012,-20.00291 c -0.29443,-0.0386 -0.59301,-0.0718 -0.89919,-0.0946 -0.31319,-0.0233 -0.63206,-0.0385 -0.95652,-0.046 -0.19521,-0.004 -0.39219,-0.006 -0.59118,-0.005 z m 3.3719,0.29559 5.88801,20.1998 c 1.70926,0.61669 3.51136,1.32109 5.42808,2.12287 a 0.42337569,0.42337569 0 0 1 0.16021,0.0672 c 0.66233,0.27805 1.33834,0.56758 2.03087,0.87075 0.0175,-0.18851 0.0322,-0.41751 0.0383,-0.68833 0.0135,-0.60228 -0.006,-1.38121 -0.0744,-2.28514 -0.13769,-1.80785 -0.48088,-4.11726 -1.18184,-6.53913 -1.40189,-4.84372 -4.22471,-10.11484 -9.67951,-12.87518 -0.78272,-0.3961 -1.65868,-0.68244 -2.60964,-0.87282 z m -14.02189,1.57665 c -1.78805,0.53782 -3.58256,1.16279 -5.33352,1.84485 -2.38334,0.92837 -4.68244,1.95107 -6.78357,2.96933 l 3.19204,7.52408 c 2.47023,0.40383 4.7194,0.75396 6.86678,1.09141 a 0.42337569,0.42337569 0 0 1 0.0103,-5.3e-4 0.42337569,0.42337569 0 0 1 0.14523,0.0253 c 2.25502,0.35477 4.42071,0.70426 6.49417,1.08521 z m -12.87777,5.1878 c -1.14162,0.56572 -2.22237,1.12667 -3.20757,1.66501 -2.41808,1.32134 -4.19296,2.47574 -5.16557,3.23495 2.10744,0.42942 4.08464,0.81012 5.94694,1.15083 a 0.42337569,0.42337569 0 0 1 0.11472,0.0207 c 1.86544,0.34055 3.61336,0.6423 5.27563,0.9183 z m -8.54885,5.72729 c 0.43948,0.78721 1.41185,2.45225 2.88666,4.58577 l 2.48822,-3.5388 c -1.69002,-0.31278 -3.48435,-0.66168 -5.37488,-1.04697 z m 6.29214,1.21388 -2.88872,4.1088 c 1.87232,2.63296 4.4306,5.83107 7.62124,8.90281 l 7.62072,-10.96883 c -2.01076,-0.31465 -4.0948,-0.64033 -6.39546,-1.017 a 0.42337569,0.42337569 0 0 1 -0.21344,-0.0346 c -1.803,-0.29616 -3.69615,-0.61861 -5.74434,-0.99116 z m 13.28187,2.1885 -7.92562,11.41171 c 2.86644,2.67431 6.209,5.21155 9.99474,7.13858 l 12.31088,-15.6931 c -2.47044,-0.6674 -4.84637,-1.18958 -7.26983,-1.65003 a 0.42337569,0.42337569 0 0 1 -0.23876,-0.0455 c -2.19702,-0.41322 -4.47518,-0.78456 -6.87141,-1.16169 z m 15.26418,3.10214 -12.41888,15.83159 c 2.0823,0.99754 4.29147,1.8086 6.62337,2.35386 2.43583,0.56955 4.76398,0.23319 6.91691,-0.64027 l 10.05985,-13.61312 c -1.80452,-0.74783 -3.5057,-1.40851 -5.12374,-1.98955 a 0.42337569,0.42337569 0 0 1 -0.0868,-0.0305 c -2.10041,-0.75206 -4.06852,-1.37625 -5.97069,-1.91203 z m 11.98325,4.26796 -9.24129,12.50569 c 2.05348,-1.12298 3.9146,-2.6879 5.51492,-4.33255 3.15193,-3.23931 5.11897,-6.53574 5.59655,-7.36906 -0.63659,-0.2791 -1.25952,-0.54641 -1.87018,-0.80408 z m 2.9497,0.36741 c -0.0111,0.0827 -0.0243,0.15774 -0.0388,0.22738 a 0.42337569,0.42337569 0 0 1 -0.0858,0.27285 c 1.14703,0.60893 2.30214,1.26406 3.45819,2.04949 2.5844,1.75588 4.75547,3.58623 5.96707,5.20898 l 1.13842,-1.96887 c -1.70992,-1.2919 -4.41185,-3.02086 -7.32772,-4.46639 -1.05862,-0.52482 -2.09962,-0.95855 -3.11142,-1.32344 z"
           id="path3489-3" />
        <path
           inkscape:connector-curvature="0"
           id="path3594-2"
           d="m 944.37655,450.18656 c -2.8942,-0.73066 -6.34435,-0.96822 -9.9334,-0.87673 l 0.83285,15.6607 c 2.37045,1.12005 4.67614,2.29949 7.05341,3.66948 a 0.42337569,0.42337569 0 0 1 0.15461,0.0896 c 1.57458,0.91175 3.18548,1.91141 4.86941,3.03511 l -0.64414,-20.82527 c -0.27543,-0.11098 -0.55622,-0.21778 -0.84698,-0.31637 -0.29743,-0.10085 -0.60236,-0.19534 -0.91465,-0.28367 -0.18789,-0.0531 -0.37818,-0.10409 -0.57111,-0.15279 z m 3.19092,1.1292 0.65095,21.03037 c 1.50081,1.02444 3.06958,2.157 4.72498,3.41252 a 0.42337569,0.42337569 0 0 1 0.13832,0.10509 c 0.57179,0.43481 1.15395,0.88416 1.74868,1.35083 0.064,-0.17816 0.13556,-0.3962 0.20913,-0.65691 0.16364,-0.57978 0.33994,-1.33873 0.49924,-2.23117 0.31867,-1.78487 0.56373,-4.10674 0.49051,-6.62695 -0.14641,-5.04038 -1.56177,-10.84984 -6.15326,-14.88626 -0.65882,-0.5792 -1.43538,-1.07544 -2.30855,-1.49752 z m -13.97079,-1.97898 c -1.86573,0.0737 -3.7595,0.2302 -5.62537,0.45285 -2.53976,0.30304 -5.02153,0.71847 -7.31051,1.1791 l 1.2096,8.08318 c 2.29083,1.00858 4.38104,1.90989 6.37587,2.77349 a 0.42337569,0.42337569 0 0 1 0.0101,0.002 0.42337569,0.42337569 0 0 1 0.13429,0.0608 c 2.09472,0.90727 4.10426,1.7871 6.01664,2.67433 z m -13.76581,1.80353 c -1.2468,0.26234 -2.43347,0.53529 -3.52197,0.81023 -2.67164,0.67484 -4.67876,1.34885 -5.81029,1.84079 1.93315,0.94266 3.75239,1.80559 5.47037,2.60106 a 0.42337569,0.42337569 0 0 1 0.10591,0.0487 c 1.72107,0.7961 3.33804,1.52526 4.87853,2.20807 z m -9.70923,3.40816 c 0.22871,0.87207 0.75393,2.72734 1.64852,5.16182 l 3.29393,-2.80435 c -1.55816,-0.72536 -3.20828,-1.51178 -4.94245,-2.35747 z m 5.78885,2.7484 -3.82421,3.25612 c 1.1546,3.01745 2.8321,6.75358 5.15346,10.52546 l 10.12099,-8.71529 c -1.86824,-0.80736 -3.80468,-1.64372 -5.93811,-2.5836 a 0.42337569,0.42337569 0 0 1 -0.198,-0.0869 c -1.67171,-0.73751 -3.42412,-1.52302 -5.31413,-2.3958 z m 12.31295,5.43955 -10.52693,9.06787 c 2.10682,3.30601 4.70891,6.59834 7.89266,9.41064 l 15.84331,-12.11696 c -2.22514,-1.26383 -4.39507,-2.36343 -6.62645,-3.41513 a 0.42337569,0.42337569 0 0 1 -0.21981,-0.10373 c -2.02394,-0.94936 -4.13693,-1.87846 -6.36278,-2.84269 z m 14.00391,6.81977 -15.98251,12.22405 c 1.76678,1.48645 3.70302,2.82406 5.82456,3.935 2.21609,1.16043 4.5544,1.41681 6.85732,1.10932 l 13.14376,-10.6658 c -1.56024,-1.17522 -3.04224,-2.24022 -4.46363,-3.20733 a 0.42337569,0.42337569 0 0 1 -0.0764,-0.0512 c -1.8457,-1.2533 -3.59526,-2.3497 -5.30307,-3.34402 z m 10.53569,7.12831 -12.07433,9.79819 c 2.26903,-0.57394 4.46227,-1.62387 6.42296,-2.81621 3.86168,-2.34843 6.5904,-5.04841 7.26114,-5.73587 -0.5466,-0.42939 -1.08293,-0.84395 -1.60977,-1.24611 z m 2.76418,1.0932 c -0.0314,0.0773 -0.063,0.14664 -0.0944,0.21046 a 0.42337569,0.42337569 0 0 1 -0.15127,0.24274 c 0.95837,0.87636 1.91302,1.79947 2.83599,2.84898 2.06334,2.34623 3.70786,4.66124 4.4753,6.53537 l 1.59451,-1.62174 c -1.33265,-1.67836 -3.51652,-4.02792 -5.97839,-6.15653 -0.8938,-0.77282 -1.79331,-1.45303 -2.68176,-2.05928 z"
           style="fill:#ee6303;fill-opacity:1;stroke:none;stroke-width:0.84666669;stroke-linecap:round;stroke-linejoin:round;stroke-miterlimit:4;stroke-dasharray:none;stroke-opacity:1" />
        <path
           style="fill:#facf03;fill-opacity:1;stroke:none;stroke-width:0.84666669;stroke-linecap:round;stroke-linejoin:round;stroke-miterlimit:4;stroke-dasharray:none;stroke-opacity:1"
           d="m 967.80571,415.31829 c -2.67422,-1.32618 -5.99609,-2.28799 -9.52332,-2.95756 l -2.49783,15.48263 c 2.07998,1.596 4.08408,3.23637 6.11788,5.07811 a 0.42337569,0.42337569 0 0 1 0.13217,0.12022 c 1.34617,1.22411 2.70923,2.54183 4.11743,3.99622 l 3.77446,-20.49049 c -0.24573,-0.16671 -0.49759,-0.33048 -0.76093,-0.48833 -0.26936,-0.16146 -0.54742,-0.3183 -0.83396,-0.47068 -0.17242,-0.0917 -0.34762,-0.18171 -0.5259,-0.27011 z m 2.87996,1.77846 -3.81116,20.6924 c 1.25022,1.31865 2.544,2.75736 3.89646,4.33455 a 0.42337569,0.42337569 0 0 1 0.11297,0.13197 c 0.46691,0.54589 0.94086,1.10819 1.42346,1.69008 0.10027,-0.16059 0.21627,-0.35858 0.34327,-0.59783 0.2826,-0.53206 0.6154,-1.23656 0.9598,-2.07513 0.6889,-1.67712 1.4195,-3.89465 1.8809,-6.37334 0.9228,-4.95735 0.768,-10.93473 -2.866,-15.85084 -0.52149,-0.70543 -1.17554,-1.35467 -1.9397,-1.95186 z m -13.2363,-4.88869 c -1.83913,-0.3225 -3.72316,-0.57004 -5.59392,-0.74702 -2.5464,-0.24091 -5.05989,-0.3597 -7.39452,-0.39356 l -0.52714,8.15617 c 2.02573,1.47022 3.87806,2.79318 5.64514,4.0591 a 0.42337569,0.42337569 0 0 1 0.009,0.004 0.42337569,0.42337569 0 0 1 0.11839,0.0879 c 1.85547,1.32973 3.63351,2.61463 5.315,3.88621 z m -13.83588,-1.14838 c -1.27409,-0.007 -2.49164,0.009 -3.61366,0.0471 -2.75393,0.0946 -4.85818,0.32891 -6.06816,0.57043 1.69008,1.33015 3.28568,2.55829 4.7966,3.69908 a 0.42337569,0.42337569 0 0 1 0.0932,0.07 c 1.51377,1.14206 2.93998,2.19667 4.30122,3.18981 z m -10.21038,1.27781 c 0.0391,0.90072 0.16011,2.8251 0.51964,5.39371 l 3.81248,-2.04435 c -1.36953,-1.03847 -2.81601,-2.15605 -4.33212,-3.34936 z m 5.0767,3.91044 -4.42631,2.37376 c 0.49039,3.19337 1.33984,7.19975 2.81104,11.37723 l 11.73516,-6.37784 c -1.65525,-1.18418 -3.37103,-2.41113 -5.25743,-3.78093 a 0.42337569,0.42337569 0 0 1 -0.17517,-0.12679 c -1.47792,-1.07436 -3.02459,-2.2127 -4.68729,-3.46543 z m 10.88415,7.92041 -12.20647,6.6366 c 1.36003,3.67679 3.20702,7.44493 5.72404,10.8669 l 18.04743,-8.49245 c -1.90756,-1.70581 -3.79587,-3.23943 -5.75437,-4.73922 a 0.42337569,0.42337569 0 0 1 -0.19291,-0.14786 c -1.77741,-1.3559 -3.64612,-2.71084 -5.61772,-4.12397 z m 12.24499,9.627 -18.20613,8.56769 c 1.41247,1.82646 3.02205,3.54328 4.86067,5.07774 1.92057,1.60284 4.15177,2.34792 6.46764,2.5344 l 15.10204,-7.64501 c -1.27643,-1.47859 -2.49969,-2.83291 -3.68441,-4.07873 a 0.42337569,0.42337569 0 0 1 -0.0639,-0.0662 c -1.5389,-1.61527 -3.01704,-3.05686 -4.47595,-4.38986 z m 8.78995,9.19513 -13.87333,7.02317 c 2.33909,-0.0811 4.70476,-0.64348 6.87325,-1.39422 4.27098,-1.47867 7.50895,-3.54053 8.3099,-4.0706 -0.44343,-0.53527 -0.87995,-1.05387 -1.30982,-1.55835 z m 2.47047,1.65303 c -0.047,0.0689 -0.093,0.13 -0.1368,0.18574 a 0.42337569,0.42337569 0 0 1 -0.1991,0.20527 c 0.7513,1.0592 1.4892,2.16332 2.1693,3.38427 1.5205,2.72952 2.6383,5.33995 2.992,7.33398 l 1.9014,-1.24786 c -0.9475,-1.92222 -2.5851,-4.68048 -4.5412,-7.28157 -0.7101,-0.94435 -1.4455,-1.79941 -2.1856,-2.57983 z"
           id="path3489-4-7"
           inkscape:connector-curvature="0" />
        <path
           inkscape:connector-curvature="0"
           id="path4233-2"
           d="m 1000.554,388.36232 c -2.30844,-1.89243 -5.32984,-3.5751 -8.61684,-5.01908 l -5.90839,14.52733 c 1.66889,2.02203 3.25389,4.07027 4.82249,6.3214 a 0.42337569,0.42337569 0 0 1 0.1018,0.14682 c 1.0372,1.49496 2.0698,3.08493 3.1158,4.81822 l 8.27604,-19.12102 c -0.202,-0.2176 -0.4107,-0.4337 -0.6319,-0.64662 -0.2263,-0.21778 -0.4621,-0.43302 -0.7071,-0.64581 -0.1475,-0.12801 -0.298,-0.25508 -0.4519,-0.38123 z m 2.4075,2.37935 -8.35724,19.30954 c 0.9225,1.56556 1.8604,3.25789 2.8245,5.09834 a 0.42337569,0.42337569 0 0 1 0.081,0.15396 c 0.3325,0.63674 0.6682,1.29105 1.0079,1.96639 0.1338,-0.13399 0.2913,-0.3009 0.4687,-0.50554 0.3948,-0.4551 0.8772,-1.06696 1.40104,-1.80686 1.0477,-1.47976 2.2572,-3.47682 3.263,-5.78877 2.0116,-4.62386 3.2021,-10.48355 0.7638,-16.08974 -0.3498,-0.80445 -0.8415,-1.58389 -1.4522,-2.33732 z m -11.80184,-7.73412 c -1.7199,-0.72697 -3.5003,-1.39095 -5.28379,-1.9832 -2.4274,-0.80615 -4.8501,-1.48591 -7.1176,-2.04277 l -2.3439,7.8299 c 1.6442,1.88727 3.1524,3.59214 4.5904,5.2223 a 0.42337569,0.42337569 0 0 1 0.01,0.006 0.42337569,0.42337569 0 0 1 0.096,0.11217 c 1.5098,1.71217 2.9542,3.36328 4.3075,4.97974 z m -13.22549,-4.22374 c -1.24,-0.29296 -2.43,-0.55074 -3.5321,-0.76497 -2.70489,-0.52578 -4.80808,-0.76961 -6.04138,-0.80576 1.34851,1.67548 2.62785,3.23033 3.84424,4.68106 a 0.42337569,0.42337569 0 0 1 0.0751,0.0891 c 1.21894,1.45262 2.37214,2.80036 3.47574,4.07363 z m -10.23673,-1.04587 c -0.16398,0.88653 -0.47789,2.78898 -0.7039,5.37276 l 4.17399,-1.13673 c -1.10158,-1.31929 -2.26041,-2.73296 -3.47009,-4.23603 z m 4.06979,4.94988 -4.84609,1.32 c -0.23867,3.22198 -0.30988,7.31681 0.18642,11.71788 l 12.86701,-3.58195 c -1.3473,-1.52541 -2.744,-3.10607 -4.275,-4.86423 a 0.42337569,0.42337569 0 0 1 -0.1422,-0.16287 c -1.1992,-1.37859 -2.451,-2.83496 -3.79014,-4.42883 z m 8.82934,10.16073 -13.3844,3.72835 c 0.50032,3.8882 1.45468,7.9747 3.13965,11.87421 l 19.49294,-4.22623 c -1.4762,-2.09034 -2.9723,-4.00857 -4.54429,-5.90959 a 0.42337569,0.42337569 0 0 1 -0.1548,-0.18738 c -1.4279,-1.72015 -2.9449,-3.45986 -4.5491,-5.27936 z m 9.77259,12.12916 -19.66444,4.26393 c 0.96663,2.09683 2.14995,4.13105 3.59735,6.03895 1.5119,1.99292 3.519,3.21965 5.734,3.92103 l 16.43249,-4.0613 c -0.9121,-1.7273 -1.8003,-3.32158 -2.6752,-4.80147 a 0.42337569,0.42337569 0 0 1 -0.047,-0.0789 c -1.1373,-1.9194 -2.2542,-3.6559 -3.3768,-5.28227 z m 6.5025,10.93302 -15.09559,3.73104 c 2.2977,0.44582 4.7292,0.42863 7.01099,0.18363 4.4938,-0.48261 8.1119,-1.76532 9.0114,-2.10214 -0.312,-0.62112 -0.6211,-1.22445 -0.9268,-1.81253 z m 2.0366,2.16523 c -0.061,0.0566 -0.1194,0.10591 -0.175,0.15032 a 0.42337569,0.42337569 0 0 1 -0.2401,0.15534 c 0.4945,1.20079 0.9658,2.44231 1.3546,3.78475 0.86934,3.0011 1.37284,5.79578 1.27004,7.81834 l 2.133,-0.78939 c -0.4921,-2.08583 -1.469,-5.14121 -2.7915,-8.11489 -0.48024,-1.07962 -1.00494,-2.07787 -1.55104,-3.00447 z"
           style="fill:#b68503;fill-opacity:1;stroke:none;stroke-width:0.84666663;stroke-linecap:round;stroke-linejoin:round;stroke-miterlimit:4;stroke-dasharray:none;stroke-opacity:1" />
        <path
           style="fill:#ab4523;fill-opacity:1;stroke:none;stroke-width:0.84666669;stroke-linecap:round;stroke-linejoin:round;stroke-miterlimit:4;stroke-dasharray:none;stroke-opacity:1"
           d="m 1039.0729,371.23641 c -1.8118,-2.37228 -4.3655,-4.70425 -7.2328,-6.86497 l -9.0886,12.78074 c 1.1594,2.35142 2.2312,4.70906 3.2406,7.26044 a 0.42337569,0.42337569 0 0 1 0.065,0.16629 c 0.6658,1.6933 1.3054,3.47802 1.925,5.40529 l 12.4488,-16.70734 c -0.1466,-0.25821 -0.3001,-0.5165 -0.4664,-0.77455 -0.1702,-0.26395 -0.3502,-0.52761 -0.5398,-0.79102 -0.1141,-0.15847 -0.2314,-0.31673 -0.3522,-0.47487 z m 1.7962,2.86892 -12.571,16.87219 c 0.538,1.73564 1.062,3.59823 1.5773,5.61098 a 0.42337569,0.42337569 0 0 1 0.043,0.16833 c 0.1772,0.69611 0.3536,1.41005 0.529,2.14539 0.161,-0.0997 0.3526,-0.22592 0.5724,-0.3843 0.4887,-0.3522 1.0988,-0.83683 1.7787,-1.43654 1.3596,-1.1994 2.9957,-2.86505 4.5059,-4.88397 3.0205,-4.03782 5.5256,-9.4671 4.441,-15.48358 -0.1556,-0.86332 -0.455,-1.7349 -0.8762,-2.6085 z m -9.7085,-10.23929 c -1.5068,-1.10274 -3.087,-2.15812 -4.6865,-3.14434 -2.1772,-1.34241 -4.3789,-2.56075 -6.4577,-3.6238 l -4.0805,7.0817 c 1.1664,2.21461 2.2425,4.22045 3.2674,6.13743 a 0.42337569,0.42337569 0 0 1 0.01,0.008 0.42337569,0.42337569 0 0 1 0.067,0.13116 c 1.0759,2.0133 2.1021,3.95215 3.0477,5.83635 z m -11.9008,-7.14999 c -1.1394,-0.57008 -2.2384,-1.09445 -3.2617,-1.55621 -2.5117,-1.13332 -4.5026,-1.85396 -5.6946,-2.17256 0.9274,1.94053 1.8152,3.74777 2.6656,5.43921 a 0.42337569,0.42337569 0 0 1 0.053,0.10401 c 0.8525,1.69385 1.6651,3.27054 2.4466,4.76337 z m -9.7224,-3.37038 c -0.3633,0.82511 -1.106,2.60451 -1.9198,5.0672 l 4.3235,-0.14709 c -0.7689,-1.53714 -1.5718,-3.17927 -2.4037,-4.92011 z m 2.8233,5.75267 -5.0197,0.171 c -0.9727,3.08089 -1.983,7.04977 -2.5114,11.4471 l 13.3458,-0.52912 c -0.9607,-1.79421 -1.9568,-3.65355 -3.0427,-5.71647 a 0.42337569,0.42337569 0 0 1 -0.101,-0.19119 c -0.8503,-1.61728 -1.7339,-3.32234 -2.671,-5.18132 z m 6.258,11.91785 -13.8829,0.55271 c -0.4067,3.89911 -0.4169,8.09556 0.3268,12.27792 l 19.9423,0.36652 c -0.9562,-2.37363 -1.9714,-4.58432 -3.0645,-6.79573 a 0.42337569,0.42337569 0 0 1 -0.1076,-0.21793 c -0.9943,-2.00225 -2.0709,-4.04402 -3.2141,-6.18349 z m 6.7236,14.05035 -20.1179,-0.36924 c 0.4588,2.26285 1.143,4.51455 2.1132,6.70402 1.0135,2.28703 2.685,3.94219 4.6795,5.13382 l 16.9259,-0.17629 c -0.4908,-1.89069 -0.9888,-3.6464 -1.5002,-5.28776 a 0.42337569,0.42337569 0 0 1 -0.028,-0.0877 c -0.6657,-2.12937 -1.3537,-4.07608 -2.0725,-5.91691 z m 3.816,12.13474 -15.5489,0.16211 c 2.1337,0.9619 4.5041,1.50396 6.781,1.78986 4.4845,0.56304 8.3005,0.14613 9.2533,0.025 -0.1609,-0.6762 -0.323,-1.3344 -0.4854,-1.97699 z m 1.4844,2.57529 c -0.073,0.041 -0.1405,0.0756 -0.2048,0.1061 a 0.42337569,0.42337569 0 0 1 -0.2694,0.096 c 0.2053,1.2823 0.3787,2.5989 0.4486,3.99477 0.1563,3.12054 0,5.95613 -0.5607,7.90096 l 2.2573,-0.2781 c 5e-4,-2.14309 -0.2482,-5.3412 -0.8519,-8.53922 -0.2192,-1.16107 -0.5005,-2.25318 -0.8191,-3.28049 z"
           id="path4239-1"
           inkscape:connector-curvature="0" />
        <path
           inkscape:connector-curvature="0"
           id="path4245-3"
           d="m 1044.3948,369.0251 c 0.4955,-2.94359 1.666,-6.19779 3.1937,-9.44678 l 14.0023,7.06289 c 0.072,2.62076 0.224,5.20612 0.5218,7.93369 a 0.42337569,0.42337569 0 0 0 0.02,0.17757 c 0.2013,1.80834 0.4684,3.6853 0.8197,5.67901 l -18.8065,-8.96786 c 0.01,-0.2968 0.024,-0.59684 0.051,-0.9027 0.027,-0.31286 0.064,-0.63005 0.1083,-0.95148 0.027,-0.1934 0.057,-0.38811 0.09,-0.58434 z m -0.2499,3.37559 18.9915,9.05663 c 0.3341,1.78613 0.7399,3.67798 1.2233,5.69861 a 0.42337569,0.42337569 0 0 0 0.041,0.16892 c 0.168,0.6984 0.3452,1.41214 0.5332,2.14437 -0.1889,-0.013 -0.4173,-0.0353 -0.6856,-0.0728 -0.5966,-0.0834 -1.3623,-0.22737 -2.2434,-0.44056 -1.7623,-0.42634 -3.9866,-1.13608 -6.2644,-2.217 -4.5556,-2.16183 -9.3048,-5.79479 -11.1529,-11.62219 -0.2652,-0.83618 -0.4071,-1.74676 -0.4423,-2.71596 z m 3.8088,-13.58647 c 0.8181,-1.67843 1.7232,-3.34923 2.6777,-4.96788 1.2992,-2.20324 2.678,-4.30818 4.0205,-6.21844 l 6.9136,4.35932 c 0,2.50302 -0.014,4.77922 -0.026,6.95293 a 0.42337569,0.42337569 0 0 0 0,0.0101 0.42337569,0.42337569 0 0 0 0,0.14741 c -0.012,2.28272 -0.015,4.47643 0.028,6.58416 z m 7.1892,-11.8771 c 0.7418,-1.03591 1.4691,-2.0125 2.1587,-2.89842 1.6926,-2.1744 3.1172,-3.74077 4.0228,-4.57878 0.085,2.14905 0.1434,4.16173 0.1805,6.05457 a 0.42337569,0.42337569 0 0 0 0,0.11655 c 0.036,1.89593 0.053,3.66962 0.059,5.35464 z m 7.0263,-7.51772 c 0.7064,0.56023 2.1936,1.78746 4.0624,3.58587 l -3.8925,1.88739 c -0.037,-1.71832 -0.093,-3.54539 -0.1699,-5.47326 z m 0.1873,6.40542 4.5195,-2.19112 c 2.2979,2.27099 5.0435,5.30982 7.5628,8.95249 l -12.0506,5.75959 c 0.013,-2.03519 0.026,-4.14448 0.024,-6.47577 a 0.42337569,0.42337569 0 0 0 10e-5,-0.21623 c 0,-1.82716 -0.017,-3.74752 -0.055,-5.82896 z m 0.026,13.46094 12.5367,-5.98939 c 2.1791,3.25884 4.1464,6.96559 5.4402,11.01173 l -17.467,9.62989 c -0.2618,-2.54557 -0.3956,-4.97453 -0.4607,-7.44047 a 0.42337569,0.42337569 0 0 0 -0.01,-0.24297 c -0.055,-2.23486 -0.055,-4.5431 -0.043,-6.96879 z m 0.6096,15.56429 17.6211,-9.71425 c 0.65,2.21551 1.0957,4.52628 1.2592,6.91549 0.1709,2.4957 -0.5351,4.73957 -1.7431,6.7242 l -15.0524,7.74225 c -0.4483,-1.90121 -0.8271,-3.68645 -1.1406,-5.37681 a 0.42337569,0.42337569 0 0 0 -0.016,-0.0906 c -0.4049,-2.19396 -0.7048,-4.23677 -0.928,-6.2003 z m 2.2874,12.51324 13.8279,-7.11222 c -1.4383,1.8464 -3.2818,3.43193 -5.1622,4.74726 -3.7036,2.5906 -7.2732,4.00253 -8.1725,4.34003 -0.1732,-0.67316 -0.3369,-1.33095 -0.4932,-1.97507 z m -0.1112,2.97042 c 0.083,0.002 0.1596,10e-4 0.2307,-0.002 a 0.42337569,0.42337569 0 0 0 0.2831,-0.0408 c 0.4167,1.22995 0.8778,2.47531 1.4673,3.74252 1.3179,2.83291 2.7757,5.26982 4.1827,6.72638 l -2.1262,0.80734 c -1.0004,-1.89526 -2.2729,-4.83985 -3.2312,-7.95006 -0.3479,-1.12919 -0.6088,-2.22635 -0.8064,-3.28362 z"
           style="fill:#952220;fill-opacity:1;stroke:none;stroke-width:0.84666663;stroke-linecap:round;stroke-linejoin:round;stroke-miterlimit:4;stroke-dasharray:none;stroke-opacity:1" />
        <path
           style="fill:#d14710;fill-opacity:1;stroke:none;stroke-width:0.84666669;stroke-linecap:round;stroke-linejoin:round;stroke-miterlimit:4;stroke-dasharray:none;stroke-opacity:1"
           d="m 1087.5373,363.04386 c 1.4603,-2.60342 3.6609,-5.27125 6.1958,-7.81359 l 10.7952,11.37611 c -0.8174,2.49107 -1.5471,4.97597 -2.1877,7.64392 a 0.42337569,0.42337569 0 0 0 -0.041,0.17382 c -0.4212,1.77008 -0.8036,3.627 -1.1461,5.62224 L 1086.4796,365.255 c 0.1089,-0.27626 0.2245,-0.55355 0.3529,-0.83242 0.1314,-0.28526 0.2725,-0.5716 0.4232,-0.85904 0.091,-0.17294 0.1845,-0.34612 0.2819,-0.51967 z m -1.3751,3.09295 14.8181,14.93738 c -0.2886,1.79404 -0.5455,3.71178 -0.7728,5.77698 a 0.42337569,0.42337569 0 0 0 -0.019,0.1727 c -0.078,0.71412 -0.1519,1.44576 -0.2222,2.19846 -0.1733,-0.0761 -0.3808,-0.17411 -0.6207,-0.30002 -0.5334,-0.27999 -1.2055,-0.67404 -1.9629,-1.17223 -1.5148,-0.99634 -3.3688,-2.41544 -5.1479,-4.202 -3.558,-3.5731 -6.8016,-8.59629 -6.5735,-14.7055 0.033,-0.87662 0.2066,-1.78163 0.5008,-2.70577 z m 8.1727,-11.50245 c 1.3368,-1.30362 2.7529,-2.57066 4.1979,-3.77195 1.9668,-1.63516 3.9754,-3.15091 5.8841,-4.49565 l 5.0356,6.43772 c -0.8435,2.3566 -1.627,4.4938 -2.3721,6.53582 a 0.42337569,0.42337569 0 0 0 0,0.009 0.42337569,0.42337569 0 0 0 -0.048,0.13932 c -0.7822,2.14456 -1.5257,4.20843 -2.197,6.20685 z m 10.7774,-8.75202 c 1.048,-0.72461 2.0623,-1.39826 3.0106,-1.9993 2.3274,-1.47516 4.1972,-2.46852 5.3326,-2.95153 -0.6454,2.05163 -1.2703,3.96573 -1.8745,5.75993 a 0.42337569,0.42337569 0 0 0 -0.038,0.11037 c -0.6059,1.79688 -1.1887,3.47214 -1.7527,5.06001 z m 9.1521,-4.70371 c 0.4757,0.76584 1.4612,2.42316 2.613,4.74699 l -4.3012,0.46219 c 0.5452,-1.62997 1.1093,-3.36868 1.6882,-5.20918 z m -1.9866,6.09246 4.9939,-0.53639 c 1.3962,2.91355 2.9544,6.70098 4.0958,10.98036 l -13.2877,1.35231 c 0.6989,-1.91144 1.4237,-3.89235 2.2089,-6.08745 a 0.42337569,0.42337569 0 0 0 0.073,-0.20349 c 0.6144,-1.72075 1.2495,-3.53309 1.916,-5.50534 z m -4.5204,12.67925 13.8228,-1.40448 c 0.9507,3.80324 1.5508,7.95656 1.4025,12.20194 l -19.6928,3.16641 c 0.6131,-2.48448 1.3074,-4.81594 2.0787,-7.15904 a 0.42337569,0.42337569 0 0 0 0.076,-0.23091 c 0.703,-2.12214 1.4819,-4.29499 2.3129,-6.57392 z m -4.6816,14.85603 19.8662,-3.1938 c -0.1362,2.30489 -0.497,4.63041 -1.1497,6.93453 -0.6819,2.4068 -2.1041,4.2805 -3.9113,5.74068 l -16.7826,2.20495 c 0.22,-1.9409 0.4663,-3.74919 0.7419,-5.44615 a 0.42337569,0.42337569 0 0 0 0.015,-0.0907 c 0.3598,-2.2018 0.7672,-4.2259 1.2201,-6.1495 z m -2.0721,12.55069 15.4172,-2.0254 c -1.9773,1.25231 -4.2479,2.12222 -6.462,2.72537 -4.3608,1.1879 -8.1975,1.31158 -9.1579,1.32563 0.064,-0.69211 0.1322,-1.36656 0.2027,-2.0256 z m -1.1077,2.75841 c 0.078,0.0303 0.1498,0.0551 0.2177,0.0762 a 0.42337569,0.42337569 0 0 0 0.2802,0.0572 c -0.023,1.29843 -0.01,2.62632 0.1175,4.01816 0.2839,3.11153 0.8332,5.89756 1.6658,7.74367 l -2.2739,0.042 c -0.3017,-2.12174 -0.5052,-5.32305 -0.357,-8.57418 0.054,-1.18035 0.1787,-2.30116 0.3497,-3.36305 z"
           id="path4251-4"
           inkscape:connector-curvature="0" />
        <path
           inkscape:connector-curvature="0"
           id="path4257-9"
           d="m 1129.1579,370.53734 c 1.9646,-2.24734 4.6669,-4.40542 7.6707,-6.37191 l 8.224,13.35349 c -1.3123,2.26964 -2.5376,4.55129 -3.7134,7.03039 a 0.42337569,0.42337569 0 0 0 -0.076,0.1616 c -0.7763,1.64558 -1.5324,3.38413 -2.2781,5.26623 l -11.3173,-17.49359 c 0.1634,-0.24795 0.3336,-0.49553 0.5166,-0.74202 0.1873,-0.25213 0.3843,-0.50332 0.5909,-0.75362 0.1243,-0.15058 0.2518,-0.30075 0.3828,-0.45056 z m -1.9819,2.74393 11.4283,17.66617 c -0.6515,1.69628 -1.2974,3.52017 -1.9446,5.49445 a 0.42337569,0.42337569 0 0 0 -0.054,0.16513 c -0.2229,0.68287 -0.4461,1.3836 -0.6697,2.10573 -0.154,-0.11009 -0.3369,-0.24873 -0.5457,-0.42128 -0.4644,-0.38374 -1.0411,-0.90763 -1.6798,-1.55097 -1.2775,-1.28664 -2.7999,-3.05678 -4.1734,-5.1711 -2.7469,-4.22862 -4.8878,-9.81161 -3.4079,-15.74325 0.2124,-0.85114 0.5687,-1.70102 1.0467,-2.54488 z m 10.3641,-9.57522 c 1.5763,-1.00075 3.2228,-1.94937 4.884,-2.82772 2.2611,-1.19558 4.5385,-2.26574 6.6831,-3.18907 l 3.6035,7.33591 c -1.3102,2.13268 -2.5165,4.06301 -3.6659,5.90807 a 0.42337569,0.42337569 0 0 0 -0.01,0.007 0.42337569,0.42337569 0 0 0 -0.076,0.12642 c -1.2066,1.93779 -2.3587,3.80456 -3.4268,5.62215 z m 12.3472,-6.3478 c 1.1747,-0.49352 2.3059,-0.94411 3.3575,-1.33722 2.5811,-0.96483 4.6153,-1.55232 5.8257,-1.79144 -1.0536,1.87499 -2.0589,3.61961 -3.0193,5.25114 a 0.42337569,0.42337569 0 0 0 -0.059,0.1003 c -0.9625,1.63381 -1.8775,3.15334 -2.756,4.59125 z m 9.924,-2.72042 c 0.308,0.84732 0.9314,2.67192 1.5806,5.183 l -4.3043,-0.43252 c 0.8688,-1.48295 1.7785,-3.06843 2.7237,-4.75048 z m -3.1974,5.55349 4.9974,0.5024 c 0.767,3.13844 1.5128,7.16542 1.7494,11.58806 l -13.2816,-1.41004 c 1.0771,-1.72679 2.1939,-3.51623 3.4138,-5.50287 a 0.42337569,0.42337569 0 0 0 0.1134,-0.1841 c 0.9553,-1.55754 1.9497,-3.20047 3.0076,-4.99345 z m -7.032,11.47818 13.8161,1.46907 c 0.148,3.91747 -0.1191,8.10542 -1.1376,12.22948 l -19.923,-0.95235 c 1.1111,-2.30523 2.2701,-4.444 3.507,-6.57832 a 0.42337569,0.42337569 0 0 0 0.1217,-0.21035 c 1.1245,-1.93215 2.3337,-3.8983 3.6158,-5.95753 z m -7.6375,13.57523 20.0983,0.96124 c -0.6074,2.22757 -1.4389,4.42914 -2.5517,6.54969 -1.1624,2.21505 -2.9396,3.75611 -5.0085,4.81331 l -16.8773,-1.2946 c 0.6146,-1.85411 1.2276,-3.57307 1.8464,-5.17704 a 0.42337569,0.42337569 0 0 0 0.034,-0.0856 c 0.805,-2.08071 1.6202,-3.9777 2.4591,-5.76699 z m -4.6097,11.856 15.5042,1.18944 c -2.1926,0.81878 -4.5937,1.20298 -6.8845,1.33776 -4.5119,0.26542 -8.292,-0.4028 -9.2347,-0.58661 0.2053,-0.66408 0.4105,-1.31013 0.615,-1.94059 z m -1.6514,2.47155 c 0.07,0.0457 0.1352,0.0848 0.1973,0.1194 a 0.42337569,0.42337569 0 0 0 0.2625,0.11359 c -0.2896,1.26592 -0.5496,2.56819 -0.7116,3.95638 -0.3622,3.10339 -0.3978,5.94284 0.037,7.92074 l -2.2339,-0.42668 c 0.1412,-2.13843 0.6006,-5.31312 1.4144,-8.46424 0.2955,-1.14404 0.6483,-2.21518 1.0341,-3.21919 z"
           style="fill:#8f7818;fill-opacity:1;stroke:none;stroke-width:0.84666669;stroke-linecap:round;stroke-linejoin:round;stroke-miterlimit:4;stroke-dasharray:none;stroke-opacity:1" />
        <path
           style="fill:#006120;fill-opacity:1;stroke:none;stroke-width:0.84666669;stroke-linecap:round;stroke-linejoin:round;stroke-miterlimit:4;stroke-dasharray:none;stroke-opacity:1"
           d="m 1167.6,388.62228 c 2.4181,-1.7501 5.5353,-3.24793 8.9032,-4.49151 l 5.0235,14.85651 c -1.7875,1.91796 -3.4928,3.86711 -5.194,6.01979 a 0.42337569,0.42337569 0 0 0 -0.1105,0.14042 c -1.1252,1.42984 -2.2516,2.9548 -3.4,4.62202 l -7.1106,-19.58435 c 0.2148,-0.20504 0.4361,-0.4082 0.6698,-0.60743 0.2389,-0.20377 0.4872,-0.40443 0.7446,-0.60209 0.1549,-0.11891 0.3128,-0.23669 0.474,-0.35335 z m -2.5462,2.23018 7.1801,19.77741 c -1.015,1.50721 -2.0531,3.14004 -3.1261,4.91915 a 0.42337569,0.42337569 0 0 0 -0.09,0.14884 c -0.3703,0.61558 -0.7447,1.2485 -1.1244,1.90218 -0.1255,-0.1418 -0.2726,-0.31788 -0.4375,-0.53283 -0.3666,-0.47802 -0.8113,-1.1178 -1.2897,-1.88788 -0.9567,-1.54012 -2.0439,-3.60633 -2.9087,-5.97461 -1.7299,-4.73653 -2.5655,-10.65723 0.2056,-16.10656 0.3977,-0.78193 0.9353,-1.53038 1.5902,-2.2457 z m 12.2457,-7.00999 c 1.7605,-0.62216 3.5777,-1.17782 5.3934,-1.66168 2.4715,-0.65864 4.9308,-1.1914 7.2277,-1.61081 l 1.8685,7.95675 c -1.7547,1.78492 -3.3629,3.39595 -4.8963,4.93663 a 0.42337569,0.42337569 0 0 0 -0.01,0.006 0.42337569,0.42337569 0 0 0 -0.1022,0.10621 c -1.6101,1.61822 -3.1512,3.17943 -4.5993,4.71154 z m 13.4556,-3.42031 c 1.2553,-0.21782 2.4587,-0.40354 3.5717,-0.55107 2.7316,-0.36206 4.8457,-0.47891 6.0789,-0.44077 -1.4468,1.59129 -2.8174,3.06635 -4.1189,4.44126 a 0.42337569,0.42337569 0 0 0 -0.08,0.0844 c -1.3041,1.37665 -2.5363,2.65256 -3.7146,3.85711 z m 10.2811,-0.42804 c 0.1104,0.8948 0.3092,2.81269 0.3794,5.40538 l -4.0981,-1.38581 c 1.179,-1.25063 2.4208,-2.592 3.7187,-4.01957 z m -4.3602,4.69604 4.7579,1.6092 c 0.044,3.2305 -0.131,7.3222 -0.8912,11.68543 l -12.6282,-4.34967 c 1.4367,-1.44158 2.926,-2.93534 4.5599,-4.59819 a 0.42337569,0.42337569 0 0 0 0.1518,-0.15401 c 1.2799,-1.30395 2.6171,-2.68235 4.0498,-4.19276 z m -9.4247,9.61106 13.1358,4.52693 c -0.7334,3.85106 -1.9319,7.87273 -3.8485,11.66378 l -19.2032,-5.39145 c 1.5992,-1.99774 3.208,-3.82248 4.8916,-5.62546 a 0.42337569,0.42337569 0 0 0 0.1657,-0.17772 c 1.5288,-1.63113 3.1478,-3.27641 4.8586,-4.99608 z m -10.4847,11.51916 19.3722,5.43942 c -1.091,2.03487 -2.3946,3.9942 -3.9542,5.81155 -1.6291,1.89834 -3.7064,3.00208 -5.9595,3.56892 l -16.1583,-5.04269 c 1.0144,-1.66929 1.9969,-3.20723 2.9593,-4.6318 a 0.42337569,0.42337569 0 0 0 0.052,-0.0759 c 1.2507,-1.84749 2.4701,-3.51364 3.6885,-5.06952 z m -7.1485,10.52196 14.8436,4.63258 c -2.3203,0.30676 -4.7464,0.14329 -7.0092,-0.23855 -4.4567,-0.75213 -7.991,-2.25021 -8.8686,-2.64055 0.3489,-0.60122 0.6936,-1.18486 1.0342,-1.75348 z m -2.1632,2.03876 c 0.058,0.0602 0.1128,0.11291 0.1656,0.16058 a 0.42337569,0.42337569 0 0 0 0.2304,0.1695 c -0.5659,1.16887 -1.111,2.37978 -1.5799,3.6964 -1.0483,2.94336 -1.7191,5.70267 -1.7382,7.72775 l -2.0816,-0.9163 c 0.6167,-2.05244 1.7757,-5.0435 3.2748,-7.93222 0.5442,-1.04878 1.128,-2.01365 1.7289,-2.90571 z"
           id="path4263-4"
           inkscape:connector-curvature="0" />
        <path
           style="fill:#028a3d;fill-opacity:1;stroke:none;stroke-width:0.84666669;stroke-linecap:round;stroke-linejoin:round;stroke-miterlimit:4;stroke-dasharray:none;stroke-opacity:1"
           d="m 1200.7768,414.83949 c 2.781,-1.08444 6.175,-1.74865 9.7476,-2.10361 l 1.1186,15.64288 c -2.213,1.40577 -4.3544,2.86244 -6.5431,4.51707 a 0.42337569,0.42337569 0 0 0 -0.1423,0.10806 c -1.4491,1.10024 -2.9234,2.29223 -4.4548,3.61636 l -1.9472,-20.74403 c 0.2595,-0.14432 0.5249,-0.28517 0.8011,-0.41911 0.2826,-0.137 0.5734,-0.26864 0.8724,-0.39507 0.1798,-0.0761 0.3623,-0.15026 0.5477,-0.22254 z m -3.026,1.51676 1.966,20.9484 c -1.362,1.20289 -2.778,2.52152 -4.2646,3.97291 a 0.42337569,0.42337569 0 0 0 -0.1242,0.12146 c -0.5134,0.50245 -1.0352,1.02062 -1.5674,1.55754 -0.086,-0.16882 -0.1837,-0.3763 -0.2891,-0.62584 -0.2344,-0.55497 -0.5036,-1.28615 -0.7725,-2.1519 -0.5378,-1.73148 -1.0694,-4.00494 -1.3097,-6.51472 -0.4807,-5.01955 0.2022,-10.95981 4.2568,-15.53521 0.5818,-0.65654 1.2907,-1.24538 2.1047,-1.77264 z m 13.6168,-3.69876 c 1.8605,-0.15856 3.759,-0.23849 5.6381,-0.2493 2.5577,-0.0147 5.0719,0.0893 7.4003,0.26204 l -0.1963,8.17083 c -2.1478,1.28528 -4.1099,2.43921 -5.982,3.54387 a 0.42337569,0.42337569 0 0 0 -0.01,0.003 0.42337569,0.42337569 0 0 0 -0.1257,0.077 c -1.9659,1.16039 -3.8506,2.28298 -5.638,3.40085 z m 13.8833,0.0799 c 1.2697,0.10547 2.4811,0.22892 3.5953,0.36654 2.7348,0.33781 4.8101,0.75734 5.9939,1.10493 -1.8011,1.17545 -3.4991,2.25764 -5.105,3.26032 a 0.42337569,0.42337569 0 0 0 -0.099,0.0615 c -1.6088,1.00369 -3.1227,1.92802 -4.5665,2.79686 z m 10.0573,2.17593 c -0.1186,0.89373 -0.4094,2.79986 -0.9947,5.3266 l -3.6167,-2.37355 c 1.456,-0.91326 2.9957,-1.89852 4.6114,-2.95305 z m -5.4027,3.44607 4.199,2.75596 c -0.7709,3.13749 -1.9714,7.05304 -3.8064,11.08401 l -11.125,-7.39084 c 1.7535,-1.03313 3.5711,-2.10351 5.5713,-3.30108 a 0.42337569,0.42337569 0 0 0 0.1857,-0.1108 c 1.5672,-0.93942 3.2084,-1.9365 4.9754,-3.03724 z m -11.542,6.92665 11.5716,7.69027 c -1.68,3.54208 -3.853,7.13208 -6.6628,10.31801 l -17.2255,-10.05547 c 2.0509,-1.5304 4.0675,-2.89098 6.151,-4.21166 a 0.42337569,0.42337569 0 0 0 0.2052,-0.13022 c 1.8903,-1.19338 3.8716,-2.37771 5.9605,-3.61091 z m -13.0486,8.50618 17.377,10.14446 c -1.5685,1.69437 -3.3236,3.2621 -5.2908,4.62791 -2.0548,1.42668 -4.3431,1.97148 -6.6664,1.95239 l -14.3667,-8.95084 c 1.4022,-1.35989 2.7405,-2.60071 4.0308,-3.73686 a 0.42337569,0.42337569 0 0 0 0.069,-0.0603 c 1.6757,-1.47282 3.2756,-2.77802 4.8467,-3.97675 z m -9.5688,8.3816 13.1978,8.22276 c -2.3228,-0.28769 -4.6294,-1.0571 -6.723,-1.9967 -4.1235,-1.85066 -7.1664,-4.19084 -7.9173,-4.78967 0.489,-0.49395 0.9697,-0.97191 1.4425,-1.43639 z m -2.607,1.42803 c 0.041,0.0728 0.081,0.13769 0.1198,0.19712 a 0.42337569,0.42337569 0 0 0 0.1803,0.22207 c -0.8422,0.9886 -1.6748,2.02312 -2.4603,3.17913 -1.7559,2.58433 -3.1002,5.08566 -3.6289,7.04059 l -1.7836,-1.41115 c 1.1139,-1.83088 2.989,-4.43348 5.1675,-6.85136 0.7909,-0.87784 1.5989,-1.6645 2.4052,-2.3764 z"
           id="path4263-5-1"
           inkscape:connector-curvature="0" />
        <path
           inkscape:connector-curvature="0"
           id="path4290-9"
           d="m 1223.4543,449.6482 c 2.9612,-0.37582 6.4147,-0.19502 9.9665,0.3292 l -2.7179,15.44553 c -2.4883,0.8256 -4.9195,1.71799 -7.4449,2.79088 a 0.42337569,0.42337569 0 0 0 -0.1643,0.0702 c -1.6731,0.71494 -3.393,1.51276 -5.2003,2.42489 l 3.1542,-20.59509 c 0.2869,-0.0769 0.5785,-0.14902 0.879,-0.21178 0.3074,-0.0642 0.6216,-0.12117 0.9422,-0.17114 0.193,-0.0301 0.388,-0.0577 0.5855,-0.0827 z m -3.304,0.73561 -3.1857,20.79788 c -1.6136,0.83571 -3.3076,1.77055 -5.1025,2.81697 a 0.42337569,0.42337569 0 0 0 -0.15,0.0876 c -0.6201,0.36258 -1.2523,0.73834 -1.899,1.12978 -0.042,-0.18459 -0.087,-0.40968 -0.1283,-0.67736 -0.092,-0.59529 -0.1758,-1.36998 -0.2261,-2.27513 -0.1008,-1.81029 -0.064,-4.14476 0.3133,-6.63768 0.754,-4.98582 2.8605,-10.58186 7.9058,-14.03429 0.724,-0.4954 1.5548,-0.89424 2.4725,-1.2078 z m 14.1075,-0.27744 c 1.8432,0.29847 3.7042,0.6825 5.5296,1.12882 2.4845,0.60751 4.898,1.3196 7.1146,2.05326 l -2.1769,7.87797 c -2.3958,0.72456 -4.5796,1.36688 -6.6641,1.98327 a 0.42337569,0.42337569 0 0 0 -0.01,7.9e-4 0.42337569,0.42337569 0 0 0 -0.1407,0.0442 c -2.1889,0.64768 -4.29,1.27841 -6.2955,1.92822 z m 13.4473,3.45262 c 1.206,0.41099 2.351,0.82524 3.3984,1.2296 2.5706,0.99252 4.4816,1.90397 5.5455,2.52895 -2.0329,0.70232 -3.943,1.33925 -5.7445,1.92145 a 0.42337569,0.42337569 0 0 0 -0.111,0.0355 c -1.8046,0.58245 -3.4978,1.11101 -5.1095,1.6028 z m 9.2266,4.55566 c -0.3323,0.83808 -1.0777,2.61635 -2.2597,4.92499 l -2.9312,-3.18159 c 1.6343,-0.5319 3.3673,-1.1133 5.1909,-1.7434 z m -6.0783,2.02926 3.403,3.69409 c -1.5105,2.85594 -3.6269,6.36217 -6.3867,9.82613 l -8.9946,-9.87368 c 1.9521,-0.57585 3.9754,-1.17226 6.2067,-1.84764 a 0.42337569,0.42337569 0 0 0 0.207,-0.0623 c 1.7486,-0.53025 3.583,-1.0984 5.5646,-1.73656 z m -12.8797,3.91289 9.3549,10.2727 c -2.4906,3.02741 -5.4713,5.98143 -8.9713,8.38869 l -14.2642,-13.94145 c 2.3614,-0.98589 4.6483,-1.81542 6.9904,-2.58997 a 0.42337569,0.42337569 0 0 0 0.2307,-0.0764 c 2.1238,-0.69801 4.3335,-1.36516 6.6595,-2.05355 z m -14.725,5.07882 14.3894,14.06457 c -1.9333,1.26222 -4.0169,2.35623 -6.2571,3.20285 -2.34,0.88434 -4.6921,0.85648 -6.9411,0.27316 l -11.7596,-12.17494 c 1.6908,-0.97821 3.2905,-1.85646 4.8183,-2.64485 a 0.42337569,0.42337569 0 0 0 0.082,-0.0416 c 1.9835,-1.02124 3.8527,-1.89835 5.668,-2.67917 z m -11.3194,5.8039 10.8028,11.18453 c -2.1831,-0.84373 -4.2335,-2.15083 -6.0359,-3.5712 -3.5498,-2.79757 -5.9325,-5.8073 -6.5153,-6.57073 0.5944,-0.36024 1.1769,-0.707 1.7484,-1.0426 z m -2.8759,0.75141 c 0.022,0.0805 0.045,0.15318 0.068,0.22032 a 0.42337569,0.42337569 0 0 0 0.1208,0.25923 c -1.0571,0.75422 -2.1163,1.55529 -3.1592,2.48567 -2.3316,2.0799 -4.2436,4.17939 -5.2318,5.94713 l -1.387,-1.80241 c 1.5256,-1.50516 3.9772,-3.57382 6.6781,-5.38956 0.9806,-0.65923 1.9557,-1.22585 2.9108,-1.72038 z"
           style="fill:#e0b72f;fill-opacity:1;stroke:none;stroke-width:0.84666669;stroke-linecap:round;stroke-linejoin:round;stroke-miterlimit:4;stroke-dasharray:none;stroke-opacity:1" />
        <path
           style="fill:#ad4522;fill-opacity:1;stroke:none;stroke-width:0.84666669;stroke-linecap:round;stroke-linejoin:round;stroke-miterlimit:4;stroke-dasharray:none;stroke-opacity:1"
           d="m 1238.922,488.17066 c 2.9514,0.44627 6.2247,1.56236 9.4987,3.03561 l -6.8284,14.11824 c -2.6192,0.11547 -5.2016,0.31077 -7.9238,0.65405 a 0.42337569,0.42337569 0 0 0 -0.1773,0.0228 c -1.8047,0.23137 -3.6769,0.52976 -5.6645,0.91426 l 8.6529,-18.95346 c 0.297,0.004 0.5972,0.0144 0.9035,0.036 0.3132,0.0221 0.631,0.053 0.9531,0.0924 0.1938,0.0237 0.389,0.0504 0.5858,0.0801 z m -3.3793,-0.19361 -8.7386,19.13995 c -1.7803,0.36383 -3.6652,0.80107 -5.6774,1.31816 a 0.42337569,0.42337569 0 0 0 -0.1683,0.0434 c -0.6955,0.17966 -1.4061,0.36871 -2.1352,0.56887 0.01,-0.18905 0.028,-0.41779 0.061,-0.68665 0.073,-0.59794 0.2047,-1.36598 0.4031,-2.25053 0.3969,-1.76913 1.0695,-4.00493 2.1122,-6.30045 2.0856,-4.59102 5.6388,-9.40013 11.4346,-11.34525 0.8316,-0.27911 1.7397,-0.43618 2.7082,-0.48748 z m 13.6481,3.58164 c 1.6918,0.78998 3.3775,1.66712 5.0118,2.59448 2.2246,1.26226 4.3523,2.60572 6.2847,3.91626 l -4.2434,6.98531 c -2.5027,0.0435 -4.7788,0.0657 -6.9524,0.0901 a 0.42337569,0.42337569 0 0 0 -0.01,-0.002 0.42337569,0.42337569 0 0 0 -0.1474,0.004 c -2.2826,0.026 -4.476,0.0596 -6.5828,0.13764 z m 11.9953,6.99012 c 1.0482,0.72439 2.0368,1.43529 2.9341,2.11004 2.2023,1.65613 3.7922,3.05435 4.6452,3.94584 -2.1473,0.12112 -4.1588,0.2128 -6.0507,0.28147 a 0.42337569,0.42337569 0 0 0 -0.1165,0.004 c -1.8951,0.0681 -3.6682,0.11467 -5.3529,0.14814 z m 7.6339,6.8999 c -0.5483,0.71563 -1.7506,2.2231 -3.5176,4.12171 l -1.9521,-3.86054 c 1.7175,-0.0659 3.5434,-0.15245 5.4697,-0.26117 z m -6.4014,0.2941 2.2662,4.48232 c -2.2323,2.33554 -5.2249,5.13143 -8.8251,7.71111 l -5.9598,-11.95289 c 2.0351,-0.0215 4.1443,-0.0433 6.4753,-0.0844 a 0.42337569,0.42337569 0 0 0 0.2162,-0.004 c 1.8269,-0.0331 3.7467,-0.0793 5.8272,-0.15267 z m -13.4586,0.25087 6.1976,12.43509 c -3.222,2.23313 -6.8954,4.26199 -10.9194,5.62312 l -9.9199,-17.30395 c 2.5408,-0.30428 4.9672,-0.47849 7.4317,-0.58475 a 0.42337569,0.42337569 0 0 0 0.2429,-0.0106 c 2.2336,-0.0922 4.5415,-0.13119 6.9671,-0.15893 z m -15.552,0.86918 10.0068,17.45657 c -2.2043,0.68692 -4.5073,1.17103 -6.8935,1.37442 -2.4925,0.21243 -4.7478,-0.45604 -6.7523,-1.63076 l -7.9923,-14.92119 c 1.8935,-0.47986 3.6722,-0.88839 5.3571,-1.2301 a 0.42337569,0.42337569 0 0 0 0.09,-0.0177 c 2.1868,-0.4414 4.2244,-0.77533 6.1839,-1.03129 z m -12.4733,2.49581 7.3418,13.70733 c -1.8701,-1.40729 -3.4862,-3.22417 -4.8327,-5.08235 -2.652,-3.65987 -4.1232,-7.20544 -4.4757,-8.0989 0.6702,-0.18441 1.3251,-0.35913 1.9666,-0.52608 z m -2.9719,-0.0617 c 0,0.0834 0,0.1596 0.01,0.23059 a 0.42337569,0.42337569 0 0 0 0.045,0.28237 c -1.2228,0.43721 -2.4603,0.91896 -3.7175,1.52953 -2.8106,1.36496 -5.2228,2.8632 -6.6557,4.29433 l -0.8427,-2.11242 c 1.8783,-1.0319 4.8013,-2.35328 7.8951,-3.36335 1.1232,-0.36671 2.2158,-0.64584 3.2696,-0.86105 z"
           id="path4296-5"
           inkscape:connector-curvature="0" />
      </g>
      <g
         inkscape:label="Calque 1"
         id="layer1-6"
         transform="matrix(1.0247143,0,0,1.0247143,669.09634,27.421722)">
        <g
           transform="translate(-1572.6532,-285.02079)"
           id="g4881">
          <path
             inkscape:connector-curvature="0"
             id="path86-9-9"
             d="m 1333.1118,408.28515 -49.2657,0.002 v 118.25324 h 28.9982 v -43.0258 l 20.5321,-0.14779 v -0.009 c 20.626,-0.14541 37.2714,-16.9046 37.2763,-37.53104 0,-20.62503 -16.6518,-37.3819 -37.2763,-37.52743 v -0.0134 z m 48.2482,0.002 v 19.23241 h 28.9983 v -19.23241 z m 38.2075,0 32.8983,118.25272 h 24.6279 l 18.2692,-56.5769 18.2687,56.5769 h 24.6279 l 32.8977,-118.25272 h -30.1847 l -15.9339,65.71536 -18.2098,-65.71536 h -21.9149 l -19.2272,65.71536 -16.1039,-65.71536 z m 179.7658,0 -43.0341,118.25272 h 31.0917 l 5.6027,-17.6506 h 34.6594 l 5.6023,17.6506 h 31.0916 l -42.5251,-118.25272 z m 76.0362,0 v 118.25272 h 79.0696 v -26.60716 h -50.0714 v -91.64556 z m 145.4335,0 c -0.4549,2.79531 -1.2274,5.40344 -2.233,7.80779 -1.0989,2.62748 -2.4741,5.01159 -4.0065,7.13651 l 0.4806,103.30894 h 29.1668 v -38.7444 l 8.6552,-9.87692 27.987,48.62132 h 34.1958 l -42.0026,-69.8624 39.6219,-48.39084 h -34.9845 l -33.4728,40.91533 v -40.91533 z m 141.6502,0 -43.0335,118.25272 h 31.0911 l 5.6028,-17.6506 h 34.6594 l 5.6027,17.6506 h 31.0911 l -42.525,-118.25272 z m -649.2699,26.45161 h 18.5493 c 6.0361,-3.7e-4 10.9294,4.89242 10.9295,10.92853 -2e-4,6.03613 -4.8934,10.9294 -10.9295,10.92905 h -18.5493 z m 68.1767,6.47971 v 85.32192 h 28.9983 v -85.32192 z m 386.8208,0 v 85.32192 h 28.9983 v -85.32192 z m -157.7727,13.88856 9.2743,28.98841 h -18.7187 z m 363.1199,0 9.2744,28.98841 h -18.7188 z"
             style="font-style:normal;font-variant:normal;font-weight:normal;font-stretch:normal;font-size:94.8111496px;line-height:1.25;font-family:'Main Feature JNL';-inkscape-font-specification:'Main Feature JNL';letter-spacing:0px;word-spacing:0px;opacity:1;fill:#8d5e0e;fill-opacity:1;stroke:none;stroke-width:4.06091785" />
          <path
             sodipodi:nodetypes="csccccc"
             inkscape:connector-curvature="0"
             id="path937-0-8"
             d="m 1780.63,344.2833 c -4.9627,1.32976 -29.4445,32.25363 -29.7575,57.94291 -0.2284,18.73651 14.0787,28.40485 19.4786,28.40485 0,-14.65901 6.3921,-30.56388 11.4061,-35.57797 5.014,5.01409 11.405,20.91896 11.405,35.57797 5.4003,0 22.1022,-9.66834 21.8739,-28.40485 -0.313,-25.68928 -29.4434,-56.61315 -34.4061,-57.94291 z"
             style="fill:#fdcf00;fill-opacity:1;stroke:none;stroke-width:0.45330164px;stroke-linecap:butt;stroke-linejoin:miter;stroke-opacity:1" />
        </g>
      </g>
    </g>
  </g>
</svg>
