<?xml version="1.0" encoding="UTF-8" standalone="no"?>
<!-- Created with Inkscape (http://www.inkscape.org/) -->

<svg
   xmlns:dc="http://purl.org/dc/elements/1.1/"
   xmlns:cc="http://creativecommons.org/ns#"
   xmlns:rdf="http://www.w3.org/1999/02/22-rdf-syntax-ns#"
   xmlns:svg="http://www.w3.org/2000/svg"
   xmlns="http://www.w3.org/2000/svg"
   xmlns:sodipodi="http://sodipodi.sourceforge.net/DTD/sodipodi-0.dtd"
   xmlns:inkscape="http://www.inkscape.org/namespaces/inkscape"
   width="620.05225mm"
   height="381.09094mm"
   viewBox="0 0 434.03657 266.76366"
   version="1.1"
   id="svg6688"
   inkscape:version="0.92.5 (2060ec1f9f, 2020-04-08)"
   sodipodi:docname="logo.svg">
  <defs
     id="defs6682" />
  <sodipodi:namedview
     id="base"
     pagecolor="#ffffff"
     bordercolor="#666666"
     borderopacity="1.0"
     inkscape:pageopacity="0.0"
     inkscape:pageshadow="2"
     inkscape:zoom="0.29326172"
     inkscape:cx="1296.6112"
     inkscape:cy="607.62485"
     inkscape:document-units="mm"
     inkscape:current-layer="layer1"
     showgrid="false"
     scale-x="0.6"
     fit-margin-top="0"
     fit-margin-left="0"
     fit-margin-right="0"
     fit-margin-bottom="0"
     inkscape:window-width="1848"
     inkscape:window-height="1016"
     inkscape:window-x="1992"
     inkscape:window-y="27"
     inkscape:window-maximized="1" />
  <metadata
     id="metadata6685">
    <rdf:RDF>
      <cc:Work
         rdf:about="">
        <dc:format>image/svg+xml</dc:format>
        <dc:type
           rdf:resource="http://purl.org/dc/dcmitype/StillImage" />
        <dc:title></dc:title>
      </cc:Work>
    </rdf:RDF>
  </metadata>
  <g
     inkscape:label="Calque 1"
     inkscape:groupmode="layer"
     id="layer1"
     transform="translate(176.41887,5.09489)">
    <g
       id="g4897"
       transform="translate(-512.17505,-362.71096)">
      <path
         inkscape:connector-curvature="0"
         id="circle966-2"
         d="m 547.52466,402.71935 c -2.35865,10e-6 -4.71136,0.0589 -7.05591,0.1757 -0.44143,0.34505 -0.88627,0.67953 -1.33326,0.99219 -3.28927,2.30084 -6.61781,3.75159 -8.05945,4.32738 0.13886,0.36146 0.28366,0.72444 0.43098,1.08779 5.28963,-0.62711 10.63686,-0.94824 16.01764,-0.94826 5.39234,-1e-5 10.75097,0.32262 16.05171,0.9524 0.047,-0.47229 0.0993,-0.9405 0.1628,-1.39733 -0.0282,-0.0156 -0.0533,-0.0262 -0.0827,-0.0419 -0.5624,-0.29514 -1.25524,-0.70067 -2.03398,-1.21336 -1.3543,-0.89075 -2.96432,-2.1035 -4.56303,-3.61115 -3.16413,-0.21335 -6.34368,-0.3235 -9.53482,-0.3235 z m -27.87272,2.76934 c -5.46753,1.09734 -10.85455,2.51617 -16.13495,4.24212 -0.2717,0.40129 -0.54745,0.79509 -0.82939,1.17202 -1.5521,2.07482 -3.22564,3.776 -4.62402,5.00952 -0.69895,0.61708 -1.32797,1.11649 -1.84329,1.48776 -0.0268,0.0196 -0.0497,0.0338 -0.0754,0.0532 0.0831,0.29014 0.16322,0.58452 0.2403,0.88263 10.48533,-4.25442 21.50305,-7.20334 32.80574,-8.74055 -0.0946,-0.38729 -0.18489,-0.77283 -0.26459,-1.15342 -0.0318,-0.005 -0.0586,-0.007 -0.0915,-0.0114 -0.62902,-0.0879 -1.41828,-0.23565 -2.32442,-0.45527 -1.8124,-0.43846 -4.0866,-1.16293 -6.4275,-2.27376 -0.14322,-0.068 -0.28733,-0.14201 -0.43098,-0.21291 z m 58.34732,0.54932 c -1.03391,0.41031 -2.0833,0.75045 -3.11298,1.03095 -3.87297,1.05505 -7.49559,1.29666 -9.04698,1.35185 0.009,0.38963 0.0221,0.78286 0.0382,1.17719 11.48035,1.56301 22.66648,4.58206 33.29926,8.94674 0.14444,-0.45715 0.2935,-0.90886 0.45112,-1.3472 -0.0244,-0.0211 -0.0469,-0.0371 -0.0723,-0.0584 -0.48966,-0.40452 -1.08434,-0.94366 -1.74098,-1.60558 -1.26844,-1.27759 -2.76255,-3.01099 -4.13462,-5.08444 -5.12929,-1.76776 -10.36521,-3.24005 -15.68072,-4.41111 z m -94.42058,11.93726 c -4.71591,2.38551 -9.30262,5.03748 -13.73767,7.94577 -0.22122,0.61233 -0.45879,1.20822 -0.70898,1.78335 -1.03375,2.37597 -2.27168,4.41679 -3.34917,5.93866 -0.5384,0.76119 -1.0359,1.39143 -1.45209,1.8712 -0.0216,0.0252 -0.0409,0.0444 -0.0615,0.0693 0.15888,0.2834 0.31503,0.5737 0.46923,0.86765 9.11006,-6.98856 19.02952,-12.76647 29.50673,-17.22686 -0.0337,-0.32502 -0.0697,-0.64855 -0.108,-0.96945 -1.54376,0.16346 -5.1644,0.43396 -9.14725,-0.0661 -0.46567,-0.0585 -0.93761,-0.13205 -1.41129,-0.21342 z m 117.999,0.15451 c -0.0818,0.43763 -0.15851,0.8812 -0.23203,1.32654 10.50282,4.5251 20.43975,10.37609 29.55377,17.44699 0.21301,-0.35799 0.42804,-0.71163 0.64749,-1.05316 -0.019,-0.026 -0.0373,-0.0464 -0.0574,-0.0729 -0.38658,-0.50394 -0.84521,-1.16271 -1.33686,-1.95492 -0.98395,-1.58394 -2.09645,-3.69547 -2.98534,-6.12934 -0.0727,-0.19913 -0.14129,-0.40379 -0.21085,-0.6072 -4.65082,-3.1494 -9.47483,-6.01374 -14.44561,-8.57983 -0.60627,0.0711 -1.20926,0.12742 -1.80145,0.16226 -4.00719,0.23577 -7.60219,-0.27333 -9.13175,-0.53847 z m -54.05302,0.0171 c -3.60672,2e-5 -7.19757,0.15532 -10.7637,0.46044 0.0812,0.0813 0.16148,0.1573 0.24029,0.22738 a 0.42337569,0.42337569 0 0 1 -0.13126,0.71262 l -3.04167,1.15497 a 0.42337569,0.42337569 0 0 1 -0.52245,-0.19379 c -0.23368,-0.43019 -0.48374,-0.93001 -0.73998,-1.4702 -12.00518,1.43276 -23.68751,4.57539 -34.70281,9.28936 0.0322,0.67572 0.0454,1.29686 0.0388,1.84123 a 0.42337569,0.42337569 0 0 1 -0.37155,0.41548 l -3.22927,0.39739 a 0.42337569,0.42337569 0 0 1 -0.44907,-0.56896 c 0.0396,-0.1057 0.0772,-0.21864 0.11319,-0.33693 -9.04989,4.24057 -17.60747,9.56059 -25.47443,15.8781 0.1628,0.57802 0.30371,1.12133 0.41084,1.60094 a 0.42337569,0.42337569 0 0 1 -0.26614,0.48937 l -3.05149,1.12913 a 0.42337569,0.42337569 0 0 1 -0.56484,-0.32866 c -2.31833,2.00236 -4.57136,4.09441 -6.75203,6.27507 -5.04285,5.04285 -9.61345,10.46957 -13.6865,16.20986 0.25427,0.46954 0.48752,0.91781 0.67903,1.31827 a 0.42337569,0.42337569 0 0 1 -0.14936,0.53692 l -2.72023,1.7849 a 0.42337569,0.42337569 0 0 1 -0.33486,0.0568 c -5.61806,8.54465 -10.16571,17.72442 -13.5568,27.32959 0.50295,0.56883 0.95136,1.1043 1.31929,1.57924 a 0.42337569,0.42337569 0 0 1 -0.0325,0.55603 l -2.281,2.31976 a 0.42337569,0.42337569 0 0 1 -0.50903,0.0729 c -2.88428,9.27145 -4.7057,18.89824 -5.38986,28.69903 a 0.42337569,0.42337569 0 0 1 0.0718,0.51521 l -0.12145,0.20981 c -0.17147,2.67848 -0.25939,5.36928 -0.25939,8.06927 h 5.6348 c 8e-5,-31.98452 12.70386,-62.65686 35.32031,-85.27335 22.61648,-22.61645 53.28883,-35.32022 85.27336,-35.32032 31.98461,-3e-5 62.65727,12.70386 85.27386,35.32032 22.61655,22.61649 35.32021,53.28876 35.32031,85.27335 h 5.63637 c -3e-5,-3.48418 -0.14616,-6.95331 -0.43098,-10.39988 -0.33317,0.28271 -0.61762,0.55593 -0.84027,0.81494 a 0.42337569,0.42337569 0 0 1 -0.71469,-0.11989 l -1.2056,-3.02204 a 0.42337569,0.42337569 0 0 1 0.185,-0.52555 c 0.61148,-0.34551 1.35884,-0.72483 2.18487,-1.11414 -1.07701,-9.40221 -3.20392,-18.60956 -6.31176,-27.45827 -0.28131,0.40831 -0.51039,0.7908 -0.66972,1.13481 a 0.42337569,0.42337569 0 0 1 -0.72038,0.0801 l -1.98437,-2.57866 a 0.42337569,0.42337569 0 0 1 0.0346,-0.55603 c 0.53396,-0.53959 1.20584,-1.15898 1.96421,-1.81333 -3.45598,-8.92971 -7.92683,-17.45978 -13.33717,-25.41705 l -2.48562,-1.96629 a 0.42337569,0.42337569 0 0 1 -0.10129,-0.54777 c 0.11645,-0.19669 0.24858,-0.40856 0.38394,-0.62322 -3.87853,-5.34747 -8.19309,-10.4152 -12.92323,-15.14533 -2.18815,-2.18814 -4.44907,-4.28714 -6.77582,-6.29574 0.002,0.0318 0.002,0.0662 0.004,0.0971 a 0.42337569,0.42337569 0 0 1 -0.59378,0.41548 l -2.9781,-1.31051 a 0.42337569,0.42337569 0 0 1 -0.23617,-0.50488 c 0.12761,-0.44392 0.29068,-0.9448 0.47284,-1.4733 -7.92535,-6.37984 -16.55384,-11.74607 -25.68215,-16.01452 0.0211,0.0843 0.0422,0.16864 0.0656,0.2465 a 0.42337569,0.42337569 0 0 1 -0.48575,0.53795 l -3.19567,-0.60979 a 0.42337569,0.42337569 0 0 1 -0.34313,-0.43924 c 0.0236,-0.43669 0.0671,-0.93209 0.12144,-1.45418 -9.46124,-4.04597 -19.41396,-6.93371 -29.64058,-8.57415 0.10157,0.25055 0.20685,0.47795 0.31575,0.67747 a 0.42337569,0.42337569 0 0 1 -0.36483,0.62632 l -3.25253,0.06 a 0.42337569,0.42337569 0 0 1 -0.42632,-0.35864 c -0.072,-0.46608 -0.13597,-1.0002 -0.19328,-1.56993 -5.30108,-0.68037 -10.66723,-1.02888 -16.06928,-1.02888 z m 0,15.42594 c -29.38566,1.1e-4 -57.57042,11.67609 -78.34924,32.45486 -20.77878,20.7788 -32.45321,48.96409 -32.45331,78.34974 h 5.6348 c 8e-5,-27.89316 11.07932,-54.64151 30.80277,-74.36497 19.72344,-19.72342 46.47181,-30.80266 74.36498,-30.80277 27.89325,-5e-5 54.64191,11.07932 74.36548,30.80277 19.72355,19.72349 30.80269,46.47172 30.80277,74.36497 h 5.6348 c -10e-5,-29.38575 -11.67442,-57.57091 -32.45331,-78.34974 -20.77892,-20.7788 -48.964,-32.45492 -78.34974,-32.45486 z m -85.02481,3.252 c -1.46486,0.51384 -4.92662,1.60902 -8.91778,2.0376 -0.20957,0.0225 -0.42367,0.0387 -0.63613,0.0574 -1.90506,1.70864 -3.76997,3.47077 -5.58882,5.2896 -2.05434,2.05434 -4.0385,4.16592 -5.9521,6.32984 -0.0854,0.93014 -0.21254,1.83934 -0.37515,2.71302 -0.47424,2.54734 -1.22264,4.81378 -1.93117,6.53862 -0.35388,0.86258 -0.69733,1.58829 -0.99528,2.14922 -0.0154,0.0294 -0.0299,0.0523 -0.0445,0.0811 0.2186,0.24071 0.43577,0.48845 0.65217,0.74052 3.83934,-5.11874 8.05479,-9.99007 12.63229,-14.56758 3.66557,-3.66555 7.51965,-7.0989 11.53782,-10.29343 -0.12491,-0.3615 -0.25164,-0.72114 -0.3814,-1.0759 z m 170.73843,0.37155 c -0.16719,0.38384 -0.33083,0.77415 -0.49247,1.16634 3.81016,3.06313 7.47094,6.34183 10.96055,9.83144 4.44783,4.4478 8.55475,9.17249 12.30625,14.13247 0.46979,-0.48206 0.94491,-0.94735 1.42161,-1.387 -0.0119,-0.0299 -0.0245,-0.0541 -0.0372,-0.0847 -0.24718,-0.58508 -0.52478,-1.33829 -0.801,-2.2288 -0.51592,-1.66084 -1.02169,-3.79688 -1.28829,-6.16913 -2.42048,-2.83805 -4.95842,-5.59097 -7.61502,-8.24756 -1.45701,-1.45698 -2.94394,-2.8769 -4.45659,-4.26331 -0.41111,-0.0531 -0.81886,-0.11179 -1.21904,-0.17931 -3.95817,-0.66795 -7.34751,-1.96933 -8.7788,-2.57039 z m -85.71362,11.80445 c -52.64155,1.7e-4 -95.37644,42.73508 -95.37663,95.3766 h 5.63637 c 1.3e-4,-49.59581 40.14443,-89.74216 89.74026,-89.74232 41.30127,-1e-4 76.04786,27.84142 86.51563,65.79546 1.80371,1.96301 3.76859,4.34477 5.69216,7.03523 0.74004,1.03506 1.47437,2.11733 2.19213,3.23185 -6.64297,-46.17009 -46.40289,-81.69693 -94.39992,-81.69682 z m 111.20715,13.6679 c -0.42032,0.53552 -0.83756,1.08619 -1.24642,1.64434 6.49086,8.91428 11.85108,18.55462 15.98766,28.69644 0.032,-0.0176 0.0641,-0.0368 0.0961,-0.0543 -0.004,-0.0319 -0.0101,-0.0586 -0.015,-0.0915 -0.0975,-0.62761 -0.18423,-1.42601 -0.23564,-2.35696 -0.10369,-1.8618 -0.067,-4.24794 0.32038,-6.80992 0.13584,-0.89824 0.31816,-1.81946 0.54983,-2.7466 -2.35132,-4.69603 -4.96472,-9.26605 -7.83309,-13.68651 -3.55727,-1.62792 -6.41565,-3.67229 -7.62384,-4.59506 z M 436.6136,463.6283 c -1.29881,0.82095 -4.3771,2.63511 -8.11786,3.94549 -2.74598,4.25601 -5.25857,8.6484 -7.52668,13.15889 0.38134,1.74541 0.56491,3.48838 0.6129,5.14025 0.0752,2.59001 -0.17663,4.9629 -0.50437,6.79855 -0.16349,0.91794 -0.34573,1.70024 -0.51832,2.31149 -0.009,0.0321 -0.0184,0.0572 -0.0264,0.0884 0.0575,0.0411 0.11504,0.0854 0.17261,0.12712 4.18822,-10.80048 9.75244,-21.05851 16.58295,-30.5077 -0.22297,-0.35798 -0.44784,-0.71357 -0.67488,-1.06246 z m 110.91106,0.79788 c -44.12176,1.3e-4 -79.94899,35.82944 -79.94915,79.95119 h 5.63481 c 1.3e-4,-41.07604 33.23828,-74.3142 74.31434,-74.31432 32.72144,-10e-5 60.46893,21.09228 70.40293,50.43671 0.38277,-0.4776 0.76028,-0.93817 1.12654,-1.36426 0.95104,-1.10633 1.83166,-2.03092 2.67374,-2.78329 0.18,-0.16082 0.34259,-0.31433 0.50695,-0.46509 -11.49033,-30.073 -40.62273,-51.46105 -74.71016,-51.46094 z m 0,15.42593 c -35.6026,3e-5 -64.52523,28.92269 -64.52526,64.52526 h 5.63684 c 6e-5,-32.55685 26.33155,-58.89043 58.88842,-58.89046 31.70812,-2.2e-4 57.5074,24.97909 58.83153,56.3578 1.10313,-3.64546 2.66822,-7.15529 4.39717,-10.38179 -5.99202,-29.42677 -32.04808,-51.61103 -63.2287,-51.61081 z m 126.88371,15.09521 c -0.0411,0.0319 -0.0824,0.0651 -0.1235,0.0971 3.94038,10.12404 6.66972,20.7261 8.09873,31.58618 0.11872,-0.0283 0.23858,-0.059 0.35656,-0.0858 0.005,-0.0319 0.006,-0.059 0.0103,-0.092 0.0774,-0.63041 0.21204,-1.42198 0.41651,-2.33165 0.40817,-1.81947 1.09416,-4.10507 2.16577,-6.4642 0.28242,-0.6217 0.59391,-1.24864 0.93223,-1.87379 -0.89476,-4.34098 -1.99011,-8.63082 -3.283,-12.85554 -0.73337,-0.48208 -1.43909,-0.99034 -2.10375,-1.51412 -3.15275,-2.48459 -5.50225,-5.25236 -6.46989,-6.46627 z m -126.88371,0.33228 c -27.08246,1.6e-4 -49.09709,22.01533 -49.09727,49.09777 h 5.6348 c 1.6e-4,-24.03675 19.42571,-43.46283 43.46247,-43.46298 24.03695,-1e-4 43.46281,19.42606 43.46297,43.46298 h 5.63481 c -1.9e-4,-27.08264 -22.01514,-49.09788 -49.09778,-49.09777 z m -128.06505,1.66811 c -1.10712,1.08819 -3.77399,3.55221 -7.20371,5.6379 -0.0328,0.0199 -0.0673,0.039 -0.10025,0.0589 -1.54659,5.01619 -2.81635,10.12435 -3.79976,15.30191 0.27334,0.72985 0.51597,1.4581 0.72348,2.17506 0.7203,2.48897 1.06968,4.84985 1.21129,6.70915 0.071,0.92965 0.0902,1.73232 0.076,2.3673 0,0.0332 -0.003,0.0603 -0.003,0.0925 0.62564,0.24105 1.25976,0.50914 1.89498,0.79478 1.18636,-11.23225 3.7607,-22.21576 7.62537,-32.71066 -0.1414,-0.14276 -0.28263,-0.28649 -0.42426,-0.42685 z m 128.06505,13.75782 c -18.56243,6e-5 -33.66974,15.10943 -33.66979,33.67184 h 5.6348 c 3e-5,-15.51671 12.51826,-28.03493 28.03499,-28.03498 15.51689,-2.2e-4 28.03543,12.51808 28.03549,28.03498 h 5.63634 c -6e-5,-18.56264 -15.10919,-33.6721 -33.67183,-33.67184 z m 78.19419,7.29464 c -2.89661,0.77615 -17.1863,18.82583 -17.36897,33.82016 -0.13324,10.93613 8.2174,16.57935 11.36933,16.57935 0,-8.55618 3.73084,-17.83954 6.65747,-20.76618 2.92664,2.92664 6.65697,12.21 6.65697,20.76618 3.1519,0 12.90093,-5.64322 12.76768,-16.57935 -0.18267,-14.99433 -17.1859,-33.04401 -20.08248,-33.82016 z m -78.19419,8.13336 c -10.04255,1.8e-4 -18.24368,8.20128 -18.24387,18.24384 h 5.63481 c 1.3e-4,-6.99692 5.61213,-12.60892 12.60906,-12.60905 6.99706,-10e-5 12.60943,5.61198 12.60957,12.60905 h 5.63477 c -1.6e-4,-10.04279 -8.20155,-18.24401 -18.24434,-18.24384 z m 135.47905,2.55694 c -0.11563,0.0466 -0.23186,0.0961 -0.34777,0.14366 0.59052,5.13489 0.89244,10.32336 0.89244,15.54324 h 5.6348 c 0,-1.89746 -0.04,-3.79064 -0.11575,-5.67924 -0.57116,-0.66106 -1.10869,-1.33943 -1.60301,-2.02158 -2.35537,-3.25043 -3.86096,-6.55424 -4.46071,-7.98608 z m -273.21018,2.68511 c -0.60891,1.01271 -1.89534,3.02328 -3.70882,5.19452 -0.14306,2.59337 -0.21807,5.19641 -0.21807,7.80727 h 5.63687 c 0,-3.90337 0.16817,-7.78928 0.49969,-11.64838 -0.73033,-0.4687 -1.47212,-0.92312 -2.20967,-1.35341 z"
         style="color:#000000;font-style:normal;font-variant:normal;font-weight:normal;font-stretch:normal;font-size:medium;line-height:normal;font-family:sans-serif;font-variant-ligatures:normal;font-variant-position:normal;font-variant-caps:normal;font-variant-numeric:normal;font-variant-alternates:normal;font-feature-settings:normal;text-indent:0;text-align:start;text-decoration:none;text-decoration-line:none;text-decoration-style:solid;text-decoration-color:#000000;letter-spacing:normal;word-spacing:normal;text-transform:none;writing-mode:lr-tb;direction:ltr;text-orientation:mixed;dominant-baseline:auto;baseline-shift:baseline;text-anchor:start;white-space:normal;shape-padding:0;clip-rule:nonzero;display:inline;overflow:visible;visibility:visible;opacity:1;isolation:auto;mix-blend-mode:normal;color-interpolation:sRGB;color-interpolation-filters:linearRGB;solid-color:#000000;solid-opacity:1;vector-effect:none;fill:#fdcf00;fill-opacity:1;fill-rule:nonzero;stroke:none;stroke-width:5.63562489;stroke-linecap:butt;stroke-linejoin:round;stroke-miterlimit:4;stroke-dasharray:none;stroke-dashoffset:0;stroke-opacity:1;paint-order:normal;color-rendering:auto;image-rendering:auto;shape-rendering:auto;text-rendering:auto;enable-background:accumulate" />
      <path
         inkscape:connector-curvature="0"
         id="path86-5"
         d="m 364.51152,555.35706 -28.75534,5.2e-4 v 69.02214 h 16.92558 v -25.11319 l 11.98428,-0.0863 v -0.005 c 12.03894,-0.0849 21.75447,-9.86692 21.75732,-21.90616 -0.004,-12.03844 -9.71917,-21.81916 -21.75732,-21.90408 v -0.008 z m 28.16159,5.2e-4 v 11.22567 h 16.92558 v -11.22567 z m 22.30096,0 19.20195,69.02164 h 14.37482 l 10.66344,-33.0228 10.66292,33.0228 h 14.37482 l 19.20245,-69.02164 h -17.61855 l -9.30021,38.35683 -10.62882,-38.35683 h -12.79146 l -11.22257,38.35683 -9.39943,-38.35683 z m 104.92592,0 -25.11838,69.02164 h 18.14775 l 3.27006,-10.30222 h 20.23031 l 3.27006,10.30222 h 18.14722 l -24.8207,-69.02164 z m 44.38073,0 v 69.02164 h 46.15119 V 608.8494 H 581.2063 v -53.49182 z m 84.8863,0 c -0.26548,1.63153 -0.71633,3.154 -1.30329,4.55734 -0.64068,1.53187 -1.4452,2.91713 -2.33836,4.15634 l 0.28009,60.30846 h 17.0243 V 601.7656 l 5.05187,-5.76502 16.33546,28.37914 h 19.9595 L 679.66025,583.60237 702.787,555.35758 h -20.41993 l -19.53731,23.88175 v -23.88175 z m 82.67866,0 -25.11782,69.02164 h 18.14719 l 3.27009,-10.30222 h 20.23031 l 3.27006,10.30222 h 18.14722 l -24.8207,-69.02164 z m -378.96601,15.43937 h 10.82675 c 3.52317,-2.1e-4 6.37937,2.85576 6.37945,6.37894 -8e-5,3.52316 -2.85631,6.37913 -6.37945,6.37894 h -10.82675 z m 39.79344,3.7822 v 49.80057 h 16.92558 v -49.80057 z m 225.77951,0 v 49.80057 h 16.92559 v -49.80057 z m -92.08844,8.10596 5.41312,16.92041 h -10.92595 z m 211.94572,0 5.41312,16.92041 h -10.92544 z"
         style="font-style:normal;font-variant:normal;font-weight:normal;font-stretch:normal;font-size:94.8111496px;line-height:1.25;font-family:'Main Feature JNL';-inkscape-font-specification:'Main Feature JNL';letter-spacing:0px;word-spacing:0px;opacity:1;fill:#8d5e0e;fill-opacity:1;stroke:none;stroke-width:2.3702786" />
      <path
         id="path3489"
         d="m 392.60387,506.31251 c -2.98495,0.0161 -6.38492,0.64866 -9.83712,1.63453 l 4.72167,14.95516 c 2.57519,0.49185 5.10252,1.05741 7.74682,1.78955 a 0.42337569,0.42337569 0 0 1 0.17208,0.0481 c 1.75252,0.48914 3.56219,1.05432 5.47357,1.72134 l -5.83012,-20.00291 c -0.29443,-0.0386 -0.59301,-0.0718 -0.89919,-0.0946 -0.31319,-0.0233 -0.63206,-0.0385 -0.95652,-0.046 -0.19521,-0.004 -0.39219,-0.006 -0.59119,-0.005 z m 3.37191,0.29559 5.88801,20.1998 c 1.70926,0.61669 3.51136,1.32109 5.42808,2.12287 a 0.42337569,0.42337569 0 0 1 0.16021,0.0672 c 0.66233,0.27805 1.33834,0.56758 2.03086,0.87075 0.0175,-0.18851 0.0322,-0.41751 0.0383,-0.68833 0.0135,-0.60228 -0.006,-1.38121 -0.0744,-2.28514 -0.13769,-1.80785 -0.48088,-4.11726 -1.18184,-6.53913 -1.40189,-4.84372 -4.22471,-10.11484 -9.67951,-12.87518 -0.78272,-0.3961 -1.65868,-0.68244 -2.60964,-0.87282 z m -14.02189,1.57665 c -1.78805,0.53782 -3.58256,1.16279 -5.33352,1.84485 -2.38334,0.92837 -4.68244,1.95107 -6.78357,2.96933 l 3.19204,7.52408 c 2.47023,0.40383 4.7194,0.75396 6.86678,1.09141 a 0.42337569,0.42337569 0 0 1 0.0103,-5.3e-4 0.42337569,0.42337569 0 0 1 0.14523,0.0253 c 2.25502,0.35477 4.42071,0.70426 6.49417,1.08521 z m -12.87777,5.1878 c -1.14162,0.56572 -2.22237,1.12667 -3.20757,1.66501 -2.41808,1.32134 -4.19296,2.47574 -5.16557,3.23495 2.10744,0.42942 4.08464,0.81012 5.94694,1.15083 a 0.42337569,0.42337569 0 0 1 0.11472,0.0207 c 1.86544,0.34055 3.61336,0.6423 5.27563,0.9183 z m -8.54885,5.72729 c 0.43948,0.78721 1.41185,2.45225 2.88666,4.58577 l 2.48822,-3.5388 c -1.69002,-0.31278 -3.48435,-0.66168 -5.37488,-1.04697 z m 6.29214,1.21388 -2.88872,4.1088 c 1.87232,2.63296 4.4306,5.83107 7.62124,8.90281 l 7.62072,-10.96883 c -2.01076,-0.31465 -4.0948,-0.64033 -6.39546,-1.017 a 0.42337569,0.42337569 0 0 1 -0.21344,-0.0346 c -1.803,-0.29616 -3.69615,-0.61861 -5.74434,-0.99116 z m 13.28187,2.1885 -7.92562,11.41171 c 2.86644,2.67431 6.209,5.21155 9.99474,7.13858 l 12.31088,-15.6931 c -2.47044,-0.6674 -4.84637,-1.18958 -7.26983,-1.65003 a 0.42337569,0.42337569 0 0 1 -0.23876,-0.0455 c -2.19702,-0.41322 -4.47518,-0.78456 -6.87141,-1.16169 z m 15.26418,3.10214 -12.41888,15.83159 c 2.0823,0.99754 4.29147,1.8086 6.62337,2.35386 2.43583,0.56955 4.76398,0.23319 6.9169,-0.64027 l 10.05985,-13.61312 c -1.80451,-0.74783 -3.5057,-1.40851 -5.12373,-1.98955 a 0.42337569,0.42337569 0 0 1 -0.0868,-0.0305 c -2.10042,-0.75206 -4.06853,-1.37625 -5.9707,-1.91203 z m 11.98325,4.26796 -9.24129,12.50569 c 2.05348,-1.12298 3.91459,-2.6879 5.51492,-4.33255 3.15193,-3.23931 5.11897,-6.53574 5.59655,-7.36906 -0.63659,-0.2791 -1.25952,-0.54641 -1.87018,-0.80408 z m 2.9497,0.36741 c -0.0111,0.0827 -0.0243,0.15774 -0.0388,0.22738 a 0.42337569,0.42337569 0 0 1 -0.0858,0.27285 c 1.14703,0.60893 2.30214,1.26406 3.45819,2.04949 2.5844,1.75588 4.75546,3.58623 5.96707,5.20898 l 1.13842,-1.96887 c -1.70992,-1.2919 -4.41185,-3.02086 -7.32772,-4.46639 -1.05862,-0.52482 -2.09962,-0.95855 -3.11142,-1.32344 z"
         style="fill:#dd061a;fill-opacity:1;stroke:none;stroke-width:0.84666669;stroke-linecap:round;stroke-linejoin:round;stroke-miterlimit:4;stroke-dasharray:none;stroke-opacity:1"
         inkscape:connector-curvature="0" />
      <path
         style="fill:#ee6303;fill-opacity:1;stroke:none;stroke-width:0.84666669;stroke-linecap:round;stroke-linejoin:round;stroke-miterlimit:4;stroke-dasharray:none;stroke-opacity:1"
         d="m 409.08185,468.38323 c -2.89419,-0.73066 -6.34434,-0.96822 -9.93339,-0.87673 l 0.83285,15.6607 c 2.37045,1.12005 4.67613,2.29949 7.05341,3.66948 a 0.42337569,0.42337569 0 0 1 0.15461,0.0896 c 1.57458,0.91175 3.18548,1.91141 4.8694,3.03511 l -0.64413,-20.82527 c -0.27543,-0.11098 -0.55622,-0.21778 -0.84698,-0.31637 -0.29743,-0.10085 -0.60236,-0.19534 -0.91465,-0.28367 -0.1879,-0.0531 -0.37818,-0.10409 -0.57112,-0.15279 z m 3.19092,1.1292 0.65096,21.03037 c 1.50081,1.02444 3.06958,2.157 4.72498,3.41252 a 0.42337569,0.42337569 0 0 1 0.13832,0.10509 c 0.57179,0.43481 1.15395,0.88416 1.74868,1.35083 0.064,-0.17816 0.13556,-0.3962 0.20913,-0.65691 0.16364,-0.57978 0.33993,-1.33873 0.49924,-2.23117 0.31866,-1.78487 0.56373,-4.10674 0.49051,-6.62695 -0.14641,-5.04038 -1.56177,-10.84984 -6.15326,-14.88626 -0.65883,-0.5792 -1.43539,-1.07544 -2.30856,-1.49752 z m -13.97078,-1.97898 c -1.86573,0.0737 -3.7595,0.2302 -5.62537,0.45285 -2.53976,0.30304 -5.02153,0.71847 -7.31051,1.1791 l 1.2096,8.08318 c 2.29083,1.00858 4.38104,1.90989 6.37587,2.77349 a 0.42337569,0.42337569 0 0 1 0.0101,0.002 0.42337569,0.42337569 0 0 1 0.13429,0.0608 c 2.09472,0.90727 4.10426,1.7871 6.01664,2.67433 z m -13.76581,1.80353 c -1.2468,0.26234 -2.43347,0.53529 -3.52197,0.81023 -2.67164,0.67484 -4.67876,1.34885 -5.81029,1.84079 1.93315,0.94266 3.75239,1.80559 5.47037,2.60106 a 0.42337569,0.42337569 0 0 1 0.10591,0.0487 c 1.72107,0.7961 3.33804,1.52526 4.87853,2.20807 z m -9.70923,3.40816 c 0.22871,0.87207 0.75393,2.72734 1.64852,5.16182 l 3.29393,-2.80435 c -1.55816,-0.72536 -3.20828,-1.51178 -4.94245,-2.35747 z m 5.78885,2.7484 -3.82421,3.25612 c 1.1546,3.01745 2.8321,6.75358 5.15346,10.52546 l 10.12099,-8.71529 c -1.86824,-0.80736 -3.80468,-1.64372 -5.93811,-2.5836 a 0.42337569,0.42337569 0 0 1 -0.198,-0.0869 c -1.67171,-0.73751 -3.42412,-1.52302 -5.31413,-2.3958 z m 12.31295,5.43955 -10.52693,9.06787 c 2.10682,3.30601 4.70891,6.59834 7.89266,9.41064 l 15.84331,-12.11696 c -2.22514,-1.26383 -4.39507,-2.36343 -6.62645,-3.41513 a 0.42337569,0.42337569 0 0 1 -0.21981,-0.10373 c -2.02394,-0.94936 -4.13693,-1.87846 -6.36278,-2.84269 z m 14.00391,6.81977 -15.98251,12.22405 c 1.76678,1.48645 3.70302,2.82406 5.82456,3.935 2.21609,1.16043 4.5544,1.41681 6.85732,1.10932 l 13.14376,-10.6658 c -1.56025,-1.17522 -3.04224,-2.24022 -4.46363,-3.20733 a 0.42337569,0.42337569 0 0 1 -0.0764,-0.0512 c -1.8457,-1.2533 -3.59526,-2.3497 -5.30307,-3.34402 z m 10.53569,7.12831 -12.07433,9.79819 c 2.26903,-0.57394 4.46227,-1.62387 6.42296,-2.81621 3.86168,-2.34843 6.59039,-5.04841 7.26113,-5.73587 -0.54659,-0.42939 -1.08292,-0.84395 -1.60976,-1.24611 z m 2.76418,1.0932 c -0.0314,0.0773 -0.063,0.14664 -0.0944,0.21046 a 0.42337569,0.42337569 0 0 1 -0.15127,0.24274 c 0.95836,0.87636 1.91302,1.79947 2.83598,2.84898 2.06335,2.34623 3.70787,4.66124 4.47531,6.53537 l 1.5945,-1.62174 c -1.33264,-1.67836 -3.51651,-4.02792 -5.97839,-6.15653 -0.8938,-0.77282 -1.79331,-1.45303 -2.68175,-2.05928 z"
         id="path3594"
         inkscape:connector-curvature="0" />
      <path
         inkscape:connector-curvature="0"
         id="path3489-4"
         d="m 432.51102,433.51495 c -2.67422,-1.32617 -5.99609,-2.28798 -9.52332,-2.95755 l -2.49783,15.48263 c 2.07997,1.596 4.08408,3.23637 6.11788,5.07811 a 0.42337569,0.42337569 0 0 1 0.13217,0.12022 c 1.34616,1.22411 2.70923,2.54183 4.11743,3.99622 l 3.77446,-20.49049 c -0.24573,-0.16671 -0.49759,-0.33048 -0.76093,-0.48833 -0.26937,-0.16146 -0.54742,-0.31831 -0.83397,-0.47068 -0.17241,-0.0917 -0.34761,-0.18172 -0.52589,-0.27012 z m 2.87996,1.77847 -3.81116,20.6924 c 1.25022,1.31865 2.544,2.75736 3.89646,4.33455 a 0.42337569,0.42337569 0 0 1 0.11296,0.13197 c 0.46691,0.54589 0.94087,1.10819 1.42347,1.69008 0.10026,-0.16059 0.21628,-0.35858 0.34332,-0.59783 0.28255,-0.53206 0.61535,-1.23656 0.95978,-2.07513 0.68891,-1.67712 1.41945,-3.89465 1.88085,-6.37334 0.92281,-4.95735 0.76802,-10.93473 -2.86602,-15.85085 -0.52145,-0.70542 -1.1755,-1.35466 -1.93966,-1.95185 z m -13.2363,-4.88869 c -1.83913,-0.32251 -3.72316,-0.57005 -5.59392,-0.74702 -2.5464,-0.24091 -5.05989,-0.35971 -7.39452,-0.39356 l -0.52714,8.15617 c 2.02573,1.47022 3.87806,2.79318 5.64514,4.0591 a 0.42337569,0.42337569 0 0 1 0.009,0.004 0.42337569,0.42337569 0 0 1 0.11839,0.0879 c 1.85547,1.32972 3.63351,2.61462 5.315,3.88621 z m -13.83588,-1.14839 c -1.27409,-0.007 -2.49164,0.009 -3.61366,0.0471 -2.75393,0.0946 -4.85819,0.32891 -6.06816,0.57043 1.69008,1.33015 3.28568,2.55829 4.79659,3.69908 a 0.42337569,0.42337569 0 0 1 0.0932,0.07 c 1.51378,1.14206 2.93999,2.19668 4.30123,3.18982 z m -10.21038,1.27782 c 0.0391,0.90072 0.16011,2.8251 0.51964,5.3937 l 3.81248,-2.04434 c -1.36953,-1.03847 -2.81602,-2.15606 -4.33212,-3.34936 z m 5.0767,3.91044 -4.42631,2.37375 c 0.49038,3.19338 1.33984,7.19976 2.81104,11.37724 l 11.73516,-6.37784 c -1.65525,-1.18419 -3.37103,-2.41114 -5.25744,-3.78093 a 0.42337569,0.42337569 0 0 1 -0.17516,-0.1268 c -1.47793,-1.07436 -3.02459,-2.21269 -4.68729,-3.46542 z m 10.88415,7.92041 -12.20647,6.6366 c 1.36003,3.67679 3.20702,7.44493 5.72404,10.8669 l 18.04742,-8.49245 c -1.90755,-1.70581 -3.79586,-3.23943 -5.75437,-4.73922 a 0.42337569,0.42337569 0 0 1 -0.1929,-0.14786 c -1.77741,-1.3559 -3.64612,-2.71084 -5.61772,-4.12397 z m 12.24498,9.627 -18.20612,8.56769 c 1.41247,1.82646 3.02205,3.54328 4.86067,5.07774 1.92057,1.60284 4.15177,2.34792 6.46763,2.5344 l 15.10205,-7.64501 c -1.27643,-1.47859 -2.49969,-2.83291 -3.68441,-4.07873 a 0.42337569,0.42337569 0 0 1 -0.0639,-0.0662 c -1.53891,-1.61527 -3.01704,-3.05686 -4.47595,-4.38986 z m 8.78995,9.19513 -13.87332,7.02317 c 2.33908,-0.0811 4.70476,-0.64348 6.87325,-1.39422 4.27098,-1.47867 7.50895,-3.54053 8.3099,-4.0706 -0.44343,-0.53527 -0.87995,-1.05387 -1.30983,-1.55835 z m 2.47048,1.65303 c -0.0471,0.0689 -0.0926,0.13 -0.13675,0.18574 a 0.42337569,0.42337569 0 0 1 -0.19918,0.20527 c 0.75135,1.0592 1.4892,2.16332 2.16935,3.38427 1.52051,2.72952 2.63827,5.33995 2.99202,7.33398 l 1.90139,-1.24786 c -0.94756,-1.92222 -2.58517,-4.68048 -4.54122,-7.28157 -0.71016,-0.94435 -1.44548,-1.79941 -2.18561,-2.57983 z"
         style="fill:#facf03;fill-opacity:1;stroke:none;stroke-width:0.84666669;stroke-linecap:round;stroke-linejoin:round;stroke-miterlimit:4;stroke-dasharray:none;stroke-opacity:1" />
      <path
         style="fill:#b68503;fill-opacity:1;stroke:none;stroke-width:0.84666663;stroke-linecap:round;stroke-linejoin:round;stroke-miterlimit:4;stroke-dasharray:none;stroke-opacity:1"
         d="m 465.25921,406.55899 c -2.30844,-1.89243 -5.32979,-3.5751 -8.61683,-5.01908 l -5.90828,14.52733 c 1.66881,2.02203 3.25373,4.07026 4.8224,6.3214 a 0.42337568,0.42337568 0 0 1 0.10182,0.14682 c 1.03715,1.49496 2.06978,3.08493 3.11572,4.81822 l 8.27607,-19.12102 c -0.20206,-0.2176 -0.41075,-0.43371 -0.63195,-0.64662 -0.22627,-0.21779 -0.46204,-0.43302 -0.70709,-0.64581 -0.14744,-0.12802 -0.29797,-0.25508 -0.45187,-0.38123 z m 2.40745,2.37934 -8.35715,19.30955 c 0.92245,1.56556 1.86041,3.25789 2.82447,5.09834 a 0.42337568,0.42337568 0 0 1 0.0805,0.15396 c 0.33251,0.63674 0.66821,1.29105 1.00793,1.96638 0.13374,-0.13399 0.29123,-0.30089 0.46871,-0.50554 0.39473,-0.45509 0.87713,-1.06695 1.40095,-1.80685 1.04767,-1.47976 2.25718,-3.47682 3.263,-5.78877 2.01166,-4.62387 3.20208,-10.48355 0.76384,-16.08974 -0.34987,-0.80445 -0.84155,-1.58389 -1.45222,-2.33733 z m -11.8018,-7.73412 c -1.71986,-0.72696 -3.5003,-1.39094 -5.28364,-1.98319 -2.42741,-0.80615 -4.85015,-1.48592 -7.11765,-2.04277 l -2.34386,7.8299 c 1.64417,1.88727 3.15241,3.59214 4.59037,5.2223 a 0.42337568,0.42337568 0 0 1 0.008,0.006 0.42337568,0.42337568 0 0 1 0.0956,0.11217 c 1.50979,1.71217 2.95416,3.36327 4.30745,4.97974 z m -13.22537,-4.22373 c -1.23997,-0.29296 -2.43002,-0.55075 -3.53208,-0.76498 -2.70492,-0.52577 -4.80811,-0.7696 -6.04141,-0.80575 1.34851,1.67547 2.62784,3.23033 3.84423,4.68106 a 0.42337568,0.42337568 0 0 1 0.0751,0.0891 c 1.21892,1.45262 2.37211,2.80036 3.47579,4.07363 z m -10.23674,-1.04587 c -0.16399,0.88652 -0.47789,2.78898 -0.7039,5.37276 l 4.17399,-1.13673 c -1.10158,-1.3193 -2.26041,-2.73296 -3.47009,-4.23603 z m 4.06978,4.94988 -4.84608,1.32 c -0.23868,3.22198 -0.30988,7.31681 0.18642,11.71788 l 12.86702,-3.58195 c -1.34731,-1.52541 -2.74402,-3.10608 -4.27497,-4.86423 a 0.42337568,0.42337568 0 0 1 -0.14223,-0.16287 c -1.19917,-1.37859 -2.45096,-2.83496 -3.79016,-4.42883 z m 8.82934,10.16073 -13.38439,3.72835 c 0.50032,3.8882 1.45468,7.9747 3.13965,11.87421 l 19.49282,-4.22623 c -1.47613,-2.09034 -2.97217,-4.00858 -4.54419,-5.90959 a 0.42337568,0.42337568 0 0 1 -0.15481,-0.18738 c -1.42783,-1.72016 -2.94485,-3.45986 -4.54908,-5.27936 z m 9.77252,12.12916 -19.66436,4.26393 c 0.96662,2.09683 2.14992,4.13105 3.59733,6.03895 1.51193,1.99292 3.51905,3.21965 5.73401,3.92103 l 16.4324,-4.0613 c -0.9121,-1.72731 -1.80027,-3.32158 -2.67523,-4.80147 a 0.42337568,0.42337568 0 0 1 -0.0474,-0.0789 c -1.13722,-1.9194 -2.25417,-3.6559 -3.37677,-5.28227 z m 6.5025,10.93302 -15.09546,3.73104 c 2.29763,0.44582 4.72917,0.42862 7.01082,0.18362 4.49387,-0.4826 8.11193,-1.76531 9.0114,-2.10214 -0.31201,-0.62111 -0.62104,-1.22445 -0.92676,-1.81252 z m 2.03656,2.16522 c -0.0613,0.0566 -0.1194,0.10592 -0.17494,0.15033 a 0.42337568,0.42337568 0 0 1 -0.24016,0.15533 c 0.49452,1.20079 0.9658,2.44232 1.35463,3.78476 0.86927,3.0011 1.37277,5.79578 1.27005,7.81834 l 2.13292,-0.78939 c -0.49208,-2.08583 -1.469,-5.14121 -2.79151,-8.1149 -0.48014,-1.07962 -1.00484,-2.07787 -1.55099,-3.00447 z"
         id="path4233"
         inkscape:connector-curvature="0" />
      <path
         inkscape:connector-curvature="0"
         id="path4239"
         d="m 503.77809,389.43308 c -1.81176,-2.37228 -4.36555,-4.70425 -7.23277,-6.86497 l -9.08866,12.78074 c 1.15946,2.35142 2.23126,4.70906 3.24061,7.26044 a 0.42337569,0.42337569 0 0 1 0.0654,0.16629 c 0.66584,1.69329 1.30543,3.47802 1.92505,5.40529 l 12.44876,-16.70735 c -0.14664,-0.25821 -0.30009,-0.51649 -0.46643,-0.77454 -0.17017,-0.26396 -0.35017,-0.52761 -0.53976,-0.79102 -0.11408,-0.15847 -0.23137,-0.31673 -0.35216,-0.47488 z m 1.79623,2.86892 -12.57099,16.87219 c 0.53798,1.73564 1.06192,3.59823 1.57723,5.61097 a 0.42337569,0.42337569 0 0 1 0.0429,0.16833 c 0.17727,0.69611 0.35363,1.41006 0.52906,2.14539 0.16095,-0.0997 0.35258,-0.22592 0.57234,-0.38429 0.48875,-0.3522 1.09885,-0.83683 1.77868,-1.43655 1.35969,-1.19939 2.99577,-2.86504 4.50599,-4.88396 3.02042,-4.03782 5.52559,-9.46711 4.44096,-15.48358 -0.15563,-0.86332 -0.45503,-1.7349 -0.87621,-2.6085 z m -9.70856,-10.23929 c -1.50677,-1.10274 -3.08697,-2.15812 -4.68648,-3.14434 -2.17718,-1.34241 -4.37886,-2.56076 -6.4577,-3.6238 l -4.08051,7.0817 c 1.16645,2.21461 2.24253,4.22045 3.26738,6.13743 a 0.42337569,0.42337569 0 0 1 0.007,0.008 0.42337569,0.42337569 0 0 1 0.0673,0.13116 c 1.07591,2.0133 2.10218,3.95215 3.04777,5.83635 z m -11.90075,-7.15 c -1.13946,-0.57007 -2.23842,-1.09444 -3.26175,-1.5562 -2.5117,-1.13332 -4.50256,-1.85396 -5.69455,-2.17256 0.92738,1.94053 1.81515,3.74777 2.6656,5.43921 a 0.42337569,0.42337569 0 0 1 0.0526,0.104 c 0.85247,1.69386 1.66507,3.27055 2.44661,4.76337 z m -9.72241,-3.37037 c -0.36334,0.82511 -1.10604,2.60451 -1.91978,5.06719 l 4.32351,-0.14708 c -0.76891,-1.53714 -1.57185,-3.17928 -2.40373,-4.92011 z m 2.82332,5.75267 -5.01972,0.171 c -0.97274,3.08089 -1.98306,7.04976 -2.51145,11.4471 l 13.34582,-0.52912 c -0.96071,-1.79421 -1.95679,-3.65355 -3.04271,-5.71647 a 0.42337569,0.42337569 0 0 1 -0.10101,-0.1912 c -0.85025,-1.61727 -1.73386,-3.32233 -2.67093,-5.18131 z m 6.258,11.91785 -13.88297,0.55271 c -0.40662,3.89911 -0.41691,8.09556 0.32682,12.27792 l 19.94233,0.36652 c -0.95624,-2.37363 -1.97141,-4.58432 -3.06449,-6.79573 a 0.42337569,0.42337569 0 0 1 -0.1076,-0.21793 c -0.99431,-2.00225 -2.07093,-4.04402 -3.21409,-6.18349 z m 6.72357,14.05034 -20.11794,-0.36924 c 0.45888,2.26285 1.14302,4.51456 2.11324,6.70402 1.01348,2.28704 2.68497,3.9422 4.67946,5.13382 l 16.92592,-0.17629 c -0.49074,-1.89068 -0.98875,-3.64639 -1.5002,-5.28775 a 0.42337569,0.42337569 0 0 1 -0.028,-0.0876 c -0.66569,-2.12937 -1.35369,-4.07608 -2.07249,-5.91691 z m 3.81597,12.13475 -15.54888,0.1621 c 2.13369,0.96191 4.5041,1.50396 6.78099,1.78986 4.4845,0.56305 8.3005,0.14613 9.25331,0.025 -0.16093,-0.67619 -0.32303,-1.33439 -0.48542,-1.97699 z m 1.48446,2.57529 c -0.0727,0.041 -0.14055,0.0756 -0.20481,0.1061 a 0.42337569,0.42337569 0 0 1 -0.26943,0.096 c 0.20534,1.2823 0.37869,2.5989 0.44861,3.99477 0.15632,3.12054 0.004,5.95613 -0.56067,7.90095 l 2.25724,-0.27809 c 4.4e-4,-2.14309 -0.24818,-5.3412 -0.85192,-8.53922 -0.21918,-1.16107 -0.50043,-2.25318 -0.81902,-3.28049 z"
         style="fill:#ab4523;fill-opacity:1;stroke:none;stroke-width:0.84666669;stroke-linecap:round;stroke-linejoin:round;stroke-miterlimit:4;stroke-dasharray:none;stroke-opacity:1" />
      <path
         style="fill:#952220;fill-opacity:1;stroke:none;stroke-width:0.84666663;stroke-linecap:round;stroke-linejoin:round;stroke-miterlimit:4;stroke-dasharray:none;stroke-opacity:1"
         d="m 509.10003,387.22177 c 0.49543,-2.9436 1.66596,-6.19779 3.19362,-9.44678 l 14.00238,7.06289 c 0.0718,2.62076 0.22396,5.20611 0.52179,7.93369 a 0.42337568,0.42337568 0 0 0 0.0198,0.17757 c 0.20124,1.80833 0.46836,3.6853 0.81966,5.679 l -18.80651,-8.96785 c 0.009,-0.2968 0.0244,-0.59684 0.0511,-0.9027 0.0273,-0.31286 0.0635,-0.63005 0.10828,-0.95149 0.0269,-0.19339 0.0568,-0.3881 0.0899,-0.58433 z m -0.24995,3.37559 18.99153,9.05662 c 0.33409,1.78613 0.73983,3.67799 1.22328,5.69862 a 0.42337568,0.42337568 0 0 0 0.0406,0.16892 c 0.16803,0.6984 0.34521,1.41214 0.53318,2.14437 -0.18887,-0.013 -0.41726,-0.0353 -0.68554,-0.0728 -0.59662,-0.0834 -1.36237,-0.22737 -2.24349,-0.44057 -1.76226,-0.42633 -3.98654,-1.13607 -6.26434,-2.217 -4.55559,-2.16182 -9.30477,-5.79478 -11.15295,-11.62218 -0.2652,-0.83618 -0.4071,-1.74676 -0.44224,-2.71596 z m 3.80878,-13.58647 c 0.81809,-1.67843 1.72323,-3.34923 2.67772,-4.96788 1.29919,-2.20324 2.67796,-4.30818 4.02054,-6.21844 l 6.91356,4.35932 c 0.002,2.50302 -0.014,4.77922 -0.0259,6.95293 a 0.42337568,0.42337568 0 0 0 -0.002,0.0101 0.42337568,0.42337568 0 0 0 0.002,0.14741 c -0.0121,2.28272 -0.0151,4.47643 0.0278,6.58416 z m 7.18923,-11.8771 c 0.74177,-1.03591 1.46906,-2.0125 2.15868,-2.89842 1.69264,-2.1744 3.11718,-3.74077 4.02277,-4.57878 0.0853,2.14904 0.14341,4.16173 0.18052,6.05457 a 0.42337568,0.42337568 0 0 0 0.002,0.11655 c 0.0364,1.89593 0.0535,3.66962 0.0588,5.35464 z m 7.02627,-7.51772 c 0.70638,0.56023 2.19359,1.78746 4.06247,3.58587 l -3.89257,1.88739 c -0.0372,-1.71832 -0.0933,-3.54539 -0.1699,-5.47326 z m 0.18729,6.40542 4.5195,-2.19112 c 2.29798,2.27099 5.04356,5.30981 7.56283,8.95248 l -12.05064,5.7596 c 0.0125,-2.03519 0.0258,-4.14448 0.0236,-6.47577 a 0.42337568,0.42337568 0 0 0 1.1e-4,-0.21623 c -0.003,-1.82716 -0.0168,-3.74752 -0.0555,-5.82896 z m 0.0263,13.46094 12.53674,-5.98939 c 2.17908,3.25884 4.14638,6.96559 5.44021,11.01173 l -17.46701,9.62989 c -0.26185,-2.54557 -0.39557,-4.97453 -0.4607,-7.44047 a 0.42337568,0.42337568 0 0 0 -0.007,-0.24297 c -0.0549,-2.23487 -0.0554,-4.5431 -0.0427,-6.96879 z m 0.60966,15.56428 17.62105,-9.71424 c 0.65007,2.21551 1.09569,4.52628 1.25925,6.91549 0.17084,2.49569 -0.53517,4.73957 -1.74315,6.7242 l -15.05242,7.74225 c -0.44822,-1.90121 -0.82702,-3.68645 -1.14058,-5.37681 a 0.42337568,0.42337568 0 0 0 -0.0161,-0.0906 c -0.40486,-2.19396 -0.70476,-4.23677 -0.92801,-6.20031 z m 2.28742,12.51325 13.82788,-7.11223 c -1.43829,1.84641 -3.28186,3.43194 -5.16225,4.74727 -3.70359,2.5906 -7.27321,4.00253 -8.17243,4.34002 -0.1732,-0.67315 -0.33697,-1.33094 -0.4932,-1.97506 z m -0.11122,2.97042 c 0.0834,0.002 0.1596,0.001 0.23065,-0.002 a 0.42337568,0.42337568 0 0 0 0.28309,-0.0408 c 0.41675,1.22995 0.8778,2.47531 1.46731,3.74251 1.31789,2.83291 2.77569,5.26983 4.18272,6.72639 l -2.12619,0.80734 c -1.00042,-1.89526 -2.27286,-4.83985 -3.23118,-7.95007 -0.34794,-1.12918 -0.6088,-2.22634 -0.8064,-3.28361 z"
         id="path4245"
         inkscape:connector-curvature="0" />
      <path
         inkscape:connector-curvature="0"
         id="path4251"
         d="m 552.24248,381.24053 c 1.46027,-2.60342 3.66086,-5.27125 6.19585,-7.81359 l 10.79515,11.37611 c -0.81738,2.49107 -1.54709,4.97597 -2.18774,7.64391 a 0.42337569,0.42337569 0 0 0 -0.0413,0.17383 c -0.42117,1.77008 -0.80352,3.627 -1.14605,5.62223 l -14.67392,-14.79135 c 0.10889,-0.27626 0.2245,-0.55355 0.35292,-0.83242 0.13136,-0.28526 0.27251,-0.5716 0.42319,-0.85905 0.0907,-0.17293 0.18455,-0.34611 0.28191,-0.51966 z m -1.37507,3.09294 14.81807,14.93739 c -0.28864,1.79403 -0.54553,3.71178 -0.77276,5.77698 a 0.42337569,0.42337569 0 0 0 -0.0189,0.17269 c -0.0776,0.71412 -0.15189,1.44577 -0.2222,2.19847 -0.17337,-0.0761 -0.38084,-0.17412 -0.62069,-0.30002 -0.53341,-0.28 -1.20558,-0.67404 -1.96297,-1.17223 -1.5148,-0.99634 -3.36879,-2.41544 -5.14783,-4.20201 -3.55807,-3.5731 -6.80162,-8.59628 -6.57357,-14.70549 0.0327,-0.87662 0.20662,-1.78163 0.5008,-2.70578 z m 8.17269,-11.50244 c 1.33678,-1.30362 2.75292,-2.57066 4.19789,-3.77195 1.96684,-1.63516 3.97538,-3.15092 5.88413,-4.49565 l 5.03555,6.43772 c -0.84353,2.3566 -1.62694,4.4938 -2.37212,6.53582 a 0.42337569,0.42337569 0 0 0 -0.005,0.009 0.42337569,0.42337569 0 0 0 -0.0482,0.13932 c -0.78218,2.14456 -1.5257,4.20843 -2.19701,6.20685 z m 10.7774,-8.75202 c 1.048,-0.72461 2.06233,-1.39827 3.01058,-1.9993 2.32743,-1.47516 4.19721,-2.46852 5.33258,-2.95153 -0.64537,2.05162 -1.27026,3.96572 -1.87447,5.75993 a 0.42337569,0.42337569 0 0 0 -0.0375,0.11037 c -0.60587,1.79688 -1.18875,3.47214 -1.75266,5.06001 z m 9.15204,-4.70371 c 0.47573,0.76584 1.4612,2.42316 2.61307,4.74699 l -4.30125,0.46218 c 0.54518,-1.62996 1.10929,-3.36867 1.68818,-5.20917 z m -1.98656,6.09246 4.99391,-0.53639 c 1.3962,2.91355 2.95444,6.70097 4.09576,10.98036 l -13.28766,1.35231 c 0.69893,-1.91145 1.42373,-3.89235 2.20886,-6.08745 a 0.42337569,0.42337569 0 0 0 0.0731,-0.20349 c 0.61446,-1.72075 1.24958,-3.53309 1.91601,-5.50534 z m -4.52042,12.67925 13.82281,-1.40448 c 0.95072,3.80323 1.55086,7.95656 1.40248,12.20194 l -19.69276,3.16641 c 0.61305,-2.48449 1.30736,-4.81594 2.0787,-7.15905 a 0.42337569,0.42337569 0 0 0 0.0759,-0.2309 c 0.70295,-2.12214 1.48185,-4.29499 2.31288,-6.57392 z m -4.68157,14.85602 19.86624,-3.19379 c -0.1362,2.30489 -0.497,4.63041 -1.14979,6.93453 -0.68189,2.4068 -2.1041,4.2805 -3.91126,5.74068 l -16.78261,2.20494 c 0.22006,-1.94089 0.46631,-3.74918 0.74194,-5.44614 a 0.42337569,0.42337569 0 0 0 0.0154,-0.0907 c 0.35973,-2.20181 0.76722,-4.22591 1.2201,-6.1495 z m -2.07214,12.55069 15.41725,-2.02539 c -1.97727,1.25231 -4.24794,2.12222 -6.46202,2.72537 -4.36082,1.18789 -8.19754,1.31158 -9.1579,1.32562 0.0643,-0.6921 0.13222,-1.36655 0.20267,-2.0256 z m -1.10768,2.75841 c 0.0777,0.0303 0.14978,0.0551 0.21768,0.0762 a 0.42337569,0.42337569 0 0 0 0.28025,0.0572 c -0.023,1.29843 -0.01,2.62633 0.11744,4.01817 0.28393,3.11152 0.83327,5.89755 1.66584,7.74367 l -2.27392,0.042 c -0.30172,-2.12175 -0.50516,-5.32305 -0.357,-8.57419 0.0538,-1.18035 0.1787,-2.30115 0.34971,-3.36305 z"
         style="fill:#d14710;fill-opacity:1;stroke:none;stroke-width:0.84666669;stroke-linecap:round;stroke-linejoin:round;stroke-miterlimit:4;stroke-dasharray:none;stroke-opacity:1" />
      <path
         style="fill:#8f7818;fill-opacity:1;stroke:none;stroke-width:0.84666669;stroke-linecap:round;stroke-linejoin:round;stroke-miterlimit:4;stroke-dasharray:none;stroke-opacity:1"
         d="m 593.86306,388.73401 c 1.9646,-2.24734 4.66693,-4.40543 7.67069,-6.37192 l 8.22407,13.3535 c -1.31234,2.26964 -2.53762,4.55129 -3.7134,7.03038 a 0.42337569,0.42337569 0 0 0 -0.0762,0.16161 c -0.7763,1.64558 -1.53246,3.38413 -2.2781,5.26623 l -11.31729,-17.49359 c 0.16339,-0.24795 0.33356,-0.49553 0.5166,-0.74202 0.18724,-0.25213 0.38427,-0.50332 0.59086,-0.75362 0.1243,-0.15059 0.2518,-0.30075 0.38278,-0.45056 z m -1.98191,2.74393 11.42836,17.66616 c -0.65152,1.69629 -1.29742,3.52018 -1.94463,5.49446 a 0.42337569,0.42337569 0 0 0 -0.054,0.16513 c -0.2229,0.68287 -0.44606,1.3836 -0.6697,2.10573 -0.15402,-0.11009 -0.33688,-0.24873 -0.5457,-0.42129 -0.4644,-0.38373 -1.04113,-0.90762 -1.67984,-1.55096 -1.27745,-1.28664 -2.79986,-3.05678 -4.17333,-5.1711 -2.74695,-4.22862 -4.8878,-9.81161 -3.40789,-15.74325 0.21235,-0.85114 0.5687,-1.70102 1.0467,-2.54488 z m 10.36409,-9.57522 c 1.57635,-1.00075 3.22285,-1.94937 4.88405,-2.82772 2.26114,-1.19559 4.53853,-2.26575 6.68308,-3.18907 l 3.60354,7.33591 c -1.31027,2.13267 -2.51657,4.06301 -3.66588,5.90806 a 0.42337569,0.42337569 0 0 0 -0.007,0.007 0.42337569,0.42337569 0 0 0 -0.0758,0.12642 c -1.20661,1.93779 -2.35879,3.80457 -3.42685,5.62216 z m 12.34729,-6.3478 c 1.17464,-0.49352 2.30586,-0.94411 3.35747,-1.33723 2.58111,-0.96483 4.61525,-1.55231 5.8257,-1.79143 -1.05361,1.87499 -2.05889,3.6196 -3.01927,5.25114 a 0.42337569,0.42337569 0 0 0 -0.0594,0.10029 c -0.96256,1.63382 -1.87759,3.15335 -2.75608,4.59125 z m 9.92391,-2.72042 c 0.30801,0.84732 0.93148,2.67192 1.58067,5.183 l -4.30433,-0.43252 c 0.86882,-1.48296 1.77854,-3.06843 2.72366,-4.75048 z m -3.19737,5.55349 4.99745,0.5024 c 0.76699,3.13844 1.51278,7.16541 1.74938,11.58806 l -13.28166,-1.41004 c 1.07719,-1.72679 2.19398,-3.51623 3.41388,-5.50287 a 0.42337569,0.42337569 0 0 0 0.11341,-0.1841 c 0.9553,-1.55754 1.94966,-3.20047 3.00754,-4.99345 z m -7.032,11.47818 13.81609,1.46907 c 0.14802,3.91747 -0.11907,8.10542 -1.1376,12.22948 l -19.92295,-0.95235 c 1.11103,-2.30524 2.27009,-4.444 3.50694,-6.57832 a 0.42337569,0.42337569 0 0 0 0.12177,-0.21035 c 1.12447,-1.93215 2.33369,-3.8983 3.61575,-5.95753 z m -7.63751,13.57523 20.09835,0.96124 c -0.60743,2.22757 -1.4389,4.42914 -2.55171,6.54969 -1.16242,2.21505 -2.93964,3.75611 -5.00853,4.81331 l -16.87726,-1.2946 c 0.61462,-1.85411 1.22759,-3.57307 1.84641,-5.17704 a 0.42337569,0.42337569 0 0 0 0.0337,-0.0856 c 0.80497,-2.08071 1.62012,-3.9777 2.45902,-5.76699 z m -4.60965,11.856 15.50416,1.18943 c -2.19259,0.81878 -4.59365,1.20298 -6.88445,1.33777 -4.51191,0.26542 -8.29202,-0.4028 -9.23473,-0.58661 0.20526,-0.66409 0.41051,-1.31013 0.61502,-1.94059 z m -1.65143,2.47155 c 0.0698,0.0457 0.13524,0.0848 0.19735,0.1194 a 0.42337569,0.42337569 0 0 0 0.2625,0.11359 c -0.28964,1.26592 -0.54963,2.56818 -0.71166,3.95638 -0.36222,3.10339 -0.39775,5.94284 0.0372,7.92074 l -2.23392,-0.42668 c 0.14121,-2.13843 0.60066,-5.31312 1.41444,-8.46424 0.29545,-1.14405 0.64826,-2.21518 1.03405,-3.21919 z"
         id="path4257"
         inkscape:connector-curvature="0" />
      <path
         inkscape:connector-curvature="0"
         id="path4263"
         d="m 632.3052,406.81895 c 2.41812,-1.7501 5.53524,-3.24793 8.90321,-4.49151 l 5.02346,14.85651 c -1.78745,1.91795 -3.49274,3.86711 -5.19402,6.01978 a 0.42337569,0.42337569 0 0 0 -0.11047,0.14043 c -1.12522,1.42984 -2.25165,2.9548 -3.39998,4.62202 l -7.11057,-19.58435 c 0.21479,-0.20505 0.4361,-0.40821 0.66971,-0.60743 0.23897,-0.20377 0.48726,-0.40443 0.74467,-0.60209 0.15488,-0.11891 0.31278,-0.23669 0.47399,-0.35336 z m -2.54626,2.23017 7.18015,19.77742 c -1.01498,1.50721 -2.05307,3.14004 -3.12612,4.91915 a 0.42337569,0.42337569 0 0 0 -0.0896,0.14884 c -0.37022,0.61558 -0.74468,1.2485 -1.12442,1.90217 -0.12544,-0.14179 -0.27259,-0.31787 -0.43745,-0.53282 -0.36663,-0.47802 -0.81134,-1.1178 -1.28968,-1.88788 -0.95674,-1.54012 -2.04389,-3.60633 -2.90878,-5.97461 -1.7298,-4.73654 -2.56548,-10.65723 0.20567,-16.10656 0.39763,-0.78193 0.93532,-1.53038 1.59022,-2.24571 z m 12.24578,-7.00999 c 1.76049,-0.62216 3.57766,-1.17781 5.3934,-1.66168 2.47151,-0.65863 4.93077,-1.19139 7.22766,-1.6108 l 1.86849,7.95674 c -1.75474,1.78493 -3.36283,3.39596 -4.89627,4.93664 a 0.42337569,0.42337569 0 0 0 -0.009,0.006 0.42337569,0.42337569 0 0 0 -0.10224,0.10621 c -1.61006,1.61822 -3.15117,3.17943 -4.59927,4.71154 z m 13.45555,-3.4203 c 1.25535,-0.21783 2.45875,-0.40354 3.57171,-0.55107 2.73165,-0.36206 4.8457,-0.47891 6.07895,-0.44078 -1.44688,1.5913 -2.81745,3.06636 -4.11893,4.44127 a 0.42337569,0.42337569 0 0 0 -0.0804,0.0844 c -1.30411,1.37664 -2.5363,2.65256 -3.7146,3.85711 z m 10.28112,-0.42804 c 0.11036,0.89479 0.30921,2.81269 0.37935,5.40538 l -4.09803,-1.38582 c 1.17897,-1.25062 2.42076,-2.592 3.71868,-4.01956 z m -4.36024,4.69604 4.75788,1.6092 c 0.0444,3.2305 -0.13094,7.32219 -0.89115,11.68543 l -12.62819,-4.34967 c 1.43666,-1.44158 2.92595,-2.93534 4.55991,-4.5982 a 0.42337569,0.42337569 0 0 0 0.15178,-0.15401 c 1.27994,-1.30394 2.61709,-2.68235 4.04977,-4.19275 z m -9.42471,9.61106 13.1358,4.52693 c -0.73336,3.85105 -1.93188,7.87272 -3.84843,11.66378 l -19.20321,-5.39145 c 1.59923,-1.99774 3.20798,-3.82248 4.89154,-5.62546 a 0.42337569,0.42337569 0 0 0 0.16579,-0.17773 c 1.52875,-1.63112 3.14771,-3.2764 4.85851,-4.99607 z m -10.48463,11.51916 19.37216,5.43941 c -1.09103,2.03488 -2.39458,3.99421 -3.95417,5.81156 -1.62911,1.89834 -3.7064,3.00208 -5.95955,3.56891 L 634.772,433.79425 c 1.01437,-1.66929 1.99686,-3.20724 2.95928,-4.6318 a 0.42337569,0.42337569 0 0 0 0.052,-0.0759 c 1.25065,-1.84749 2.47007,-3.51364 3.68849,-5.06952 z m -7.14856,10.52196 14.84362,4.63258 c -2.3203,0.30676 -4.7464,0.14329 -7.00917,-0.23855 -4.45669,-0.75213 -7.99102,-2.25022 -8.86859,-2.64055 0.34882,-0.60122 0.69358,-1.18487 1.03414,-1.75348 z m -2.16315,2.03876 c 0.0578,0.0602 0.11281,0.11291 0.16558,0.16058 a 0.42337569,0.42337569 0 0 0 0.23037,0.1695 c -0.56587,1.16886 -1.111,2.37978 -1.57991,3.69639 -1.04826,2.94336 -1.71901,5.70268 -1.73817,7.72776 l -2.08156,-0.9163 c 0.61669,-2.05244 1.77569,-5.0435 3.27473,-7.93222 0.54423,-1.04878 1.12805,-2.01365 1.72896,-2.90571 z"
         style="fill:#006120;fill-opacity:1;stroke:none;stroke-width:0.84666669;stroke-linecap:round;stroke-linejoin:round;stroke-miterlimit:4;stroke-dasharray:none;stroke-opacity:1" />
      <path
         inkscape:connector-curvature="0"
         id="path4263-5"
         d="m 665.48197,433.03616 c 2.78103,-1.08444 6.17497,-1.74865 9.74759,-2.10361 l 1.11858,15.64288 c -2.21299,1.40577 -4.35434,2.86244 -6.54307,4.51707 a 0.42337569,0.42337569 0 0 0 -0.14229,0.10806 c -1.44915,1.10024 -2.92343,2.29223 -4.45476,3.61636 l -1.94725,-20.74403 c 0.25952,-0.14432 0.52487,-0.28517 0.80114,-0.41911 0.28259,-0.137 0.57343,-0.26864 0.87234,-0.39507 0.17984,-0.0761 0.36232,-0.15026 0.54772,-0.22254 z m -3.02598,1.51675 1.96595,20.94841 c -1.36196,1.20289 -2.77793,2.52152 -4.26459,3.97291 a 0.42337569,0.42337569 0 0 0 -0.1242,0.12146 c -0.51335,0.50245 -1.0352,1.02062 -1.56737,1.55754 -0.0857,-0.16882 -0.18372,-0.3763 -0.2891,-0.62584 -0.23437,-0.55497 -0.50356,-1.28615 -0.77247,-2.1519 -0.53786,-1.73148 -1.0694,-4.00494 -1.30975,-6.51472 -0.4807,-5.01955 0.20219,-10.95981 4.25683,-15.53522 0.5818,-0.65653 1.29071,-1.24538 2.1047,-1.77264 z m 13.61683,-3.69875 c 1.86045,-0.15857 3.75899,-0.23849 5.63807,-0.2493 2.55773,-0.0147 5.07187,0.0893 7.40034,0.26204 l -0.19634,8.17083 c -2.14783,1.28527 -4.10993,2.4392 -5.98205,3.54386 a 0.42337569,0.42337569 0 0 0 -0.01,0.003 0.42337569,0.42337569 0 0 0 -0.1257,0.077 c -1.96581,1.1604 -3.85053,2.28299 -5.63791,3.40086 z m 13.88323,0.0799 c 1.26973,0.10546 2.48111,0.22892 3.59533,0.36654 2.73476,0.33781 4.81006,0.75734 5.99392,1.10493 -1.80111,1.17545 -3.49909,2.25764 -5.10498,3.26032 a 0.42337569,0.42337569 0 0 0 -0.099,0.0615 c -1.60887,1.00369 -3.12277,1.92802 -4.56653,2.79686 z m 10.05733,2.17593 c -0.11863,0.89373 -0.40937,2.79986 -0.99468,5.3266 l -3.61671,-2.37355 c 1.45601,-0.91326 2.99568,-1.89852 4.61139,-2.95305 z m -5.40269,3.44607 4.199,2.75596 c -0.77092,3.13749 -1.97142,7.05304 -3.80636,11.08401 l -11.12502,-7.39084 c 1.7535,-1.03313 3.57108,-2.10351 5.57126,-3.30108 a 0.42337569,0.42337569 0 0 0 0.18568,-0.1108 c 1.56717,-0.93943 3.20846,-1.9365 4.97544,-3.03724 z m -11.54206,6.92665 11.57162,7.69027 c -1.67992,3.54208 -3.85298,7.13208 -6.6628,10.31801 L 670.75193,451.4355 c 2.05095,-1.5304 4.06752,-2.89098 6.15101,-4.21166 a 0.42337569,0.42337569 0 0 0 0.20522,-0.13022 c 1.89037,-1.19338 3.87161,-2.37771 5.96047,-3.61091 z m -13.0485,8.50618 17.37693,10.14446 c -1.56849,1.69437 -3.32362,3.2621 -5.29076,4.62791 -2.05481,1.42668 -4.34317,1.97148 -6.66645,1.95239 l -14.36664,-8.95084 c 1.40221,-1.35989 2.74046,-2.60071 4.03074,-3.73686 a 0.42337569,0.42337569 0 0 0 0.0695,-0.0603 c 1.67575,-1.47282 3.2756,-2.77802 4.8467,-3.97675 z m -9.56882,8.3816 13.19773,8.22276 c -2.32274,-0.28769 -4.6294,-1.0571 -6.72299,-1.9967 -4.12345,-1.85066 -7.16636,-4.19084 -7.91729,-4.78967 0.48904,-0.49395 0.96972,-0.97191 1.44255,-1.43639 z m -2.60701,1.42803 c 0.0408,0.0728 0.0807,0.13769 0.11978,0.19712 a 0.42337569,0.42337569 0 0 0 0.18025,0.22207 c -0.84211,0.9886 -1.67472,2.02312 -2.4602,3.17913 -1.75598,2.58433 -3.10026,5.08566 -3.62899,7.04059 l -1.78357,-1.41115 c 1.11388,-1.83088 2.98904,-4.43348 5.16749,-6.85136 0.7909,-0.87784 1.59897,-1.6645 2.40524,-2.3764 z"
         style="fill:#028a3d;fill-opacity:1;stroke:none;stroke-width:0.84666669;stroke-linecap:round;stroke-linejoin:round;stroke-miterlimit:4;stroke-dasharray:none;stroke-opacity:1" />
      <path
         style="fill:#e0b72f;fill-opacity:1;stroke:none;stroke-width:0.84666669;stroke-linecap:round;stroke-linejoin:round;stroke-miterlimit:4;stroke-dasharray:none;stroke-opacity:1"
         d="m 688.15942,467.84487 c 2.96124,-0.37582 6.41482,-0.19502 9.96656,0.3292 l -2.71787,15.44553 c -2.48835,0.8256 -4.91958,1.71799 -7.4449,2.79088 a 0.42337569,0.42337569 0 0 0 -0.16429,0.0702 c -1.67316,0.71494 -3.39299,1.51276 -5.20028,2.42489 l 3.15418,-20.59509 c 0.28682,-0.0769 0.57846,-0.14902 0.87899,-0.21178 0.30743,-0.0642 0.62154,-0.12117 0.94221,-0.17114 0.19294,-0.0301 0.38798,-0.0577 0.5854,-0.0827 z m -3.30394,0.73561 -3.18572,20.79788 c -1.61353,0.83571 -3.30759,1.77055 -5.10249,2.81697 a 0.42337569,0.42337569 0 0 0 -0.15,0.0876 c -0.6201,0.36258 -1.25226,0.73834 -1.899,1.12978 -0.0421,-0.18459 -0.0867,-0.40968 -0.12828,-0.67736 -0.0924,-0.59529 -0.17578,-1.36998 -0.22615,-2.27513 -0.10079,-1.81029 -0.0637,-4.14476 0.31332,-6.63768 0.754,-4.98582 2.86052,-10.58186 7.90582,-14.03429 0.72396,-0.4954 1.55475,-0.89424 2.4725,-1.2078 z m 14.10752,-0.27744 c 1.84318,0.29847 3.7042,0.6825 5.52953,1.12882 2.48458,0.60751 4.89802,1.3196 7.11463,2.05326 l -2.17684,7.87797 c -2.39586,0.72456 -4.57961,1.36688 -6.66413,1.98327 a 0.42337569,0.42337569 0 0 0 -0.0103,8.3e-4 0.42337569,0.42337569 0 0 0 -0.14065,0.0442 c -2.18895,0.64768 -4.29003,1.27841 -6.29555,1.92822 z m 13.44729,3.45262 c 1.20601,0.41099 2.35103,0.82524 3.39837,1.2296 2.57059,0.99252 4.48164,1.90397 5.54548,2.52895 -2.03284,0.70232 -3.94297,1.33925 -5.74443,1.92145 a 0.42337569,0.42337569 0 0 0 -0.11102,0.0355 c -1.80461,0.58245 -3.49779,1.11101 -5.10946,1.6028 z m 9.22663,4.55566 c -0.33234,0.83808 -1.07775,2.61635 -2.25977,4.92499 l -2.93118,-3.18159 c 1.63435,-0.5319 3.36735,-1.1133 5.19095,-1.7434 z m -6.07837,2.02926 3.40304,3.69409 c -1.51054,2.85594 -3.62692,6.36217 -6.38676,9.82613 l -8.99451,-9.87368 c 1.95205,-0.57585 3.97532,-1.17226 6.20663,-1.84764 a 0.42337569,0.42337569 0 0 0 0.20705,-0.0623 c 1.74853,-0.53025 3.58298,-1.0984 5.56455,-1.73656 z m -12.87971,3.91289 9.35491,10.2727 c -2.49062,3.02741 -5.47124,5.98143 -8.97129,8.38869 l -14.26418,-13.94145 c 2.36146,-0.98589 4.6483,-1.81542 6.99035,-2.58997 a 0.42337569,0.42337569 0 0 0 0.23072,-0.0764 c 2.12378,-0.69801 4.3335,-1.36516 6.65949,-2.05355 z m -14.72495,5.07882 14.38943,14.06457 c -1.93335,1.26222 -4.01694,2.35623 -6.25711,3.20285 -2.34,0.88434 -4.69215,0.85648 -6.94109,0.27316 l -11.75963,-12.17494 c 1.69075,-0.97821 3.2905,-1.85646 4.81827,-2.64485 a 0.42337569,0.42337569 0 0 0 0.0821,-0.0416 c 1.98354,-1.02124 3.85268,-1.89835 5.66807,-2.67917 z m -11.31937,5.8039 10.80278,11.18453 c -2.18312,-0.84373 -4.23353,-2.15083 -6.03588,-3.5712 -3.54984,-2.79757 -5.93254,-5.8073 -6.51536,-6.57073 0.59444,-0.36024 1.1769,-0.707 1.74846,-1.0426 z m -2.87597,0.75141 c 0.0219,0.0805 0.0448,0.15318 0.0683,0.22032 a 0.42337569,0.42337569 0 0 0 0.12085,0.25923 c -1.05717,0.75422 -2.1163,1.55529 -3.15925,2.48567 -2.33157,2.0799 -4.24361,4.17939 -5.23174,5.94713 l -1.387,-1.80241 c 1.52556,-1.50516 3.97717,-3.57382 6.67808,-5.38956 0.98058,-0.65923 1.95565,-1.22585 2.91079,-1.72038 z"
         id="path4290"
         inkscape:connector-curvature="0" />
      <path
         inkscape:connector-curvature="0"
         id="path4296"
         d="m 703.62714,506.36733 c 2.95145,0.44627 6.22471,1.56236 9.49873,3.03561 l -6.82835,14.11824 c -2.6192,0.11547 -5.20166,0.31077 -7.92388,0.65405 a 0.42337569,0.42337569 0 0 0 -0.17722,0.0228 c -1.80473,0.23137 -3.67697,0.52976 -5.66454,0.91426 l 8.65292,-18.95346 c 0.29692,0.004 0.59717,0.0144 0.90343,0.036 0.31327,0.0221 0.63101,0.053 0.95316,0.0924 0.19381,0.0237 0.38899,0.0504 0.58575,0.0801 z m -3.37929,-0.19361 -8.73859,19.13995 c -1.78031,0.36383 -3.66514,0.80107 -5.67743,1.31816 a 0.42337569,0.42337569 0 0 0 -0.16822,0.0434 c -0.69549,0.17966 -1.40618,0.36871 -2.13517,0.56887 0.01,-0.18905 0.0283,-0.41779 0.0614,-0.68665 0.0735,-0.59794 0.20462,-1.36598 0.40308,-2.25053 0.39688,-1.76913 1.06942,-4.00493 2.11221,-6.30045 2.08554,-4.59102 5.63877,-9.40013 11.43454,-11.34525 0.83165,-0.27911 1.73973,-0.43618 2.70821,-0.48748 z m 13.64811,3.58164 c 1.69184,0.78998 3.37751,1.66712 5.01185,2.59448 2.2246,1.26226 4.35225,2.60572 6.28464,3.91626 l -4.2434,6.98531 c -2.50264,0.0435 -4.77879,0.0657 -6.9524,0.0901 a 0.42337569,0.42337569 0 0 0 -0.0101,-0.002 0.42337569,0.42337569 0 0 0 -0.14736,0.004 c -2.28261,0.026 -4.47606,0.0596 -6.58278,0.13764 z m 11.99535,6.99012 c 1.04815,0.72439 2.03673,1.43529 2.93403,2.11004 2.20233,1.65613 3.79225,3.05435 4.64524,3.94584 -2.14732,0.12112 -4.15876,0.2128 -6.05072,0.28147 a 0.42337569,0.42337569 0 0 0 -0.1165,0.004 c -1.89505,0.0681 -3.66821,0.11467 -5.35291,0.14814 z m 7.63388,6.8999 c -0.54837,0.71563 -1.75063,2.2231 -3.51761,4.12171 l -1.95206,-3.86054 c 1.71746,-0.0659 3.54334,-0.15245 5.46967,-0.26117 z m -6.40141,0.2941 2.2662,4.48232 c -2.23234,2.33554 -5.22495,5.13143 -8.82509,7.71111 l -5.9598,-11.95289 c 2.03511,-0.0215 4.14434,-0.0433 6.47527,-0.0844 a 0.42337569,0.42337569 0 0 0 0.2162,-0.004 c 1.82686,-0.0331 3.74672,-0.0793 5.82722,-0.15267 z m -13.45863,0.25087 6.19767,12.43509 c -3.22204,2.23313 -6.89546,4.26199 -10.91946,5.62312 l -9.91989,-17.30395 c 2.54085,-0.30428 4.96724,-0.47849 7.43175,-0.58475 a 0.42337569,0.42337569 0 0 0 0.24282,-0.0106 c 2.23365,-0.0922 4.54155,-0.13119 6.96711,-0.15893 z m -15.55194,0.86918 10.00679,17.45657 c -2.20435,0.68692 -4.50736,1.17103 -6.89352,1.37442 -2.49249,0.21243 -4.74783,-0.45604 -6.75233,-1.63076 l -7.99224,-14.92119 c 1.89347,-0.47986 3.67213,-0.88839 5.35703,-1.2301 a 0.42337569,0.42337569 0 0 0 0.0903,-0.0177 c 2.1869,-0.4414 4.22443,-0.77533 6.18397,-1.03129 z m -12.47336,2.49581 7.34188,13.70733 c -1.87014,-1.40729 -3.4862,-3.22417 -4.83271,-5.08235 -2.65201,-3.65987 -4.12328,-7.20544 -4.47573,-8.0989 0.67017,-0.18441 1.32514,-0.35913 1.96656,-0.52608 z m -2.97186,-0.0617 c -9.2e-4,0.0834 10e-4,0.1596 0.006,0.23059 a 0.42337569,0.42337569 0 0 0 0.0455,0.28237 c -1.22283,0.43721 -2.46033,0.91896 -3.71753,1.52953 -2.81053,1.36496 -5.22279,2.8632 -6.65568,4.29433 l -0.84269,-2.11242 c 1.87831,-1.0319 4.80126,-2.35328 7.89506,-3.36335 1.12323,-0.36671 2.21589,-0.64584 3.26971,-0.86105 z"
         style="fill:#ad4522;fill-opacity:1;stroke:none;stroke-width:0.84666669;stroke-linecap:round;stroke-linejoin:round;stroke-miterlimit:4;stroke-dasharray:none;stroke-opacity:1" />
    </g>
  </g>
</svg>
