<?xml version="1.0" encoding="UTF-8" standalone="no"?>
<!-- Created with Inkscape (http://www.inkscape.org/) -->

<svg
   xmlns:dc="http://purl.org/dc/elements/1.1/"
   xmlns:cc="http://creativecommons.org/ns#"
   xmlns:rdf="http://www.w3.org/1999/02/22-rdf-syntax-ns#"
   xmlns:svg="http://www.w3.org/2000/svg"
   xmlns="http://www.w3.org/2000/svg"
   xmlns:sodipodi="http://sodipodi.sourceforge.net/DTD/sodipodi-0.dtd"
   xmlns:inkscape="http://www.inkscape.org/namespaces/inkscape"
   width="743.62073mm"
   height="182.2571mm"
   viewBox="0 0 743.62073 182.2571"
   version="1.1"
   id="svg6568"
   inkscape:version="0.92.5 (2060ec1f9f, 2020-04-08)"
   sodipodi:docname="logo_right.svg">
  <defs
     id="defs6562" />
  <sodipodi:namedview
     id="base"
     pagecolor="#ffffff"
     bordercolor="#666666"
     borderopacity="1.0"
     inkscape:pageopacity="0.0"
     inkscape:pageshadow="2"
     inkscape:zoom="0.58652344"
     inkscape:cx="1406.8184"
     inkscape:cy="324.47021"
     inkscape:document-units="mm"
     inkscape:current-layer="layer1"
     showgrid="false"
     fit-margin-top="0"
     fit-margin-left="0"
     fit-margin-right="0"
     fit-margin-bottom="0"
     inkscape:window-width="1848"
     inkscape:window-height="1016"
     inkscape:window-x="1992"
     inkscape:window-y="27"
     inkscape:window-maximized="1" />
  <metadata
     id="metadata6565">
    <rdf:RDF>
      <cc:Work
         rdf:about="">
        <dc:format>image/svg+xml</dc:format>
        <dc:type
           rdf:resource="http://purl.org/dc/dcmitype/StillImage" />
        <dc:title></dc:title>
      </cc:Work>
    </rdf:RDF>
  </metadata>
  <g
     inkscape:label="Calque 1"
     inkscape:groupmode="layer"
     id="layer1"
     transform="translate(288.8071,-59.26251)">
    <g
       transform="translate(-1572.6532,-285.02079)"
       id="g4881">
      <path
         inkscape:connector-curvature="0"
         id="path86-9-9"
         d="m 1333.1118,408.28515 -49.2657,0.002 v 118.25324 h 28.9982 v -43.0258 l 20.5321,-0.14779 v -0.009 c 20.626,-0.14541 37.2714,-16.9046 37.2763,-37.53104 0,-20.62503 -16.6518,-37.3819 -37.2763,-37.52743 v -0.0134 z m 48.2482,0.002 v 19.23241 h 28.9983 v -19.23241 z m 38.2075,0 32.8983,118.25272 h 24.6279 l 18.2692,-56.5769 18.2687,56.5769 h 24.6279 l 32.8977,-118.25272 h -30.1847 l -15.9339,65.71536 -18.2098,-65.71536 h -21.9149 l -19.2272,65.71536 -16.1039,-65.71536 z m 179.7658,0 -43.0341,118.25272 h 31.0917 l 5.6027,-17.6506 h 34.6594 l 5.6023,17.6506 h 31.0916 l -42.5251,-118.25272 z m 76.0362,0 v 118.25272 h 79.0696 v -26.60716 h -50.0714 v -91.64556 z m 145.4335,0 c -0.4549,2.79531 -1.2274,5.40344 -2.233,7.80779 -1.0989,2.62748 -2.4741,5.01159 -4.0065,7.13651 l 0.4806,103.30894 h 29.1668 v -38.7444 l 8.6552,-9.87692 27.987,48.62132 h 34.1958 l -42.0026,-69.8624 39.6219,-48.39084 h -34.9845 l -33.4728,40.91533 v -40.91533 z m 141.6502,0 -43.0335,118.25272 h 31.0911 l 5.6028,-17.6506 h 34.6594 l 5.6027,17.6506 h 31.0911 l -42.525,-118.25272 z m -649.2699,26.45161 h 18.5493 c 6.0361,-3.7e-4 10.9294,4.89242 10.9295,10.92853 -2e-4,6.03613 -4.8934,10.9294 -10.9295,10.92905 h -18.5493 z m 68.1767,6.47971 v 85.32192 h 28.9983 v -85.32192 z m 386.8208,0 v 85.32192 h 28.9983 v -85.32192 z m -157.7727,13.88856 9.2743,28.98841 h -18.7187 z m 363.1199,0 9.2744,28.98841 h -18.7188 z"
         style="font-style:normal;font-variant:normal;font-weight:normal;font-stretch:normal;font-size:94.8111496px;line-height:1.25;font-family:'Main Feature JNL';-inkscape-font-specification:'Main Feature JNL';letter-spacing:0px;word-spacing:0px;opacity:1;fill:#8d5e0e;fill-opacity:1;stroke:none;stroke-width:4.06091785" />
      <path
         sodipodi:nodetypes="csccccc"
         inkscape:connector-curvature="0"
         id="path937-0-8"
         d="m 1780.63,344.2833 c -4.9627,1.32976 -29.4445,32.25363 -29.7575,57.94291 -0.2284,18.73651 14.0787,28.40485 19.4786,28.40485 0,-14.65901 6.3921,-30.56388 11.4061,-35.57797 5.014,5.01409 11.405,20.91896 11.405,35.57797 5.4003,0 22.1022,-9.66834 21.8739,-28.40485 -0.313,-25.68928 -29.4434,-56.61315 -34.4061,-57.94291 z"
         style="fill:#fdcf00;fill-opacity:1;stroke:none;stroke-width:0.45330164px;stroke-linecap:butt;stroke-linejoin:miter;stroke-opacity:1" />
    </g>
  </g>
</svg>
